<svg id="svg" version="1.1" width="400" height="400" viewBox="0 0 400 400" xmlns="http://www.w3.org/2000/svg" xmlns:xlink="http://www.w3.org/1999/xlink" ><g id="svgg"><path id="path0" d="M233.600 47.221 C 202.778 49.310,175.473 61.114,168.417 75.400 C 166.967 78.336,166.467 83.209,167.486 84.481 C 167.715 84.766,168.036 85.436,168.200 85.969 C 168.716 87.648,175.120 94.400,176.197 94.400 C 176.300 94.400,177.369 95.030,178.573 95.800 C 179.777 96.570,180.843 97.200,180.942 97.200 C 181.041 97.200,182.624 97.891,184.461 98.736 C 188.978 100.815,190.426 101.382,194.400 102.628 C 196.270 103.214,198.160 103.842,198.600 104.024 C 199.040 104.205,200.210 104.538,201.200 104.763 C 202.190 104.988,204.530 105.550,206.400 106.011 C 214.204 107.937,220.352 109.139,226.800 110.002 C 234.918 111.088,236.571 111.255,241.400 111.475 L 246.600 111.711 249.000 113.770 C 264.455 127.027,274.035 130.907,284.165 128.010 C 291.387 125.945,290.312 123.667,278.538 116.097 C 270.238 110.760,270.020 110.495,273.506 109.970 C 279.799 109.021,289.620 106.674,293.400 105.216 C 293.840 105.046,295.280 104.499,296.600 104.001 C 313.089 97.772,326.000 86.003,326.000 77.200 C 326.000 73.264,323.218 68.621,318.896 65.344 C 317.633 64.387,316.375 63.416,316.100 63.187 C 315.485 62.673,306.925 58.401,306.504 58.398 C 306.337 58.396,305.750 58.161,305.200 57.875 C 304.650 57.589,302.580 56.856,300.600 56.246 C 298.620 55.636,296.536 54.962,295.968 54.749 C 294.809 54.312,291.828 53.536,286.800 52.362 C 268.217 48.025,249.056 46.173,233.600 47.221 M263.200 57.146 C 297.118 61.678,304.819 76.418,280.600 90.453 C 271.687 95.619,256.598 99.893,254.489 97.850 C 252.175 95.607,241.505 88.400,240.499 88.400 C 240.383 88.400,239.548 88.054,238.644 87.632 C 232.647 84.830,224.025 84.879,221.660 87.728 C 220.813 88.748,220.837 88.767,229.800 94.394 C 233.282 96.581,236.119 98.814,235.809 99.124 C 235.079 99.854,216.749 97.051,215.400 96.003 C 215.180 95.832,214.396 95.563,213.658 95.405 C 207.408 94.068,200.299 89.140,198.273 84.740 C 193.694 74.800,215.625 59.741,238.377 57.201 C 240.454 56.969,242.252 56.682,242.371 56.563 C 242.740 56.194,259.607 56.666,263.200 57.146 M357.800 126.344 C 345.121 132.383,330.703 155.966,321.938 185.000 C 320.324 190.346,320.032 191.423,319.008 195.800 C 318.442 198.220,317.803 200.920,317.590 201.800 C 313.638 218.064,311.206 245.353,312.367 260.382 C 313.375 273.411,316.206 280.283,321.095 281.559 C 328.362 283.458,342.101 269.361,351.756 250.100 C 352.556 248.505,353.343 247.202,353.505 247.205 C 353.667 247.208,354.941 247.568,356.336 248.005 C 362.420 249.913,365.348 247.817,367.784 239.812 C 370.326 231.458,369.571 228.811,364.640 228.795 C 360.651 228.781,360.666 228.834,362.746 222.045 C 369.736 199.233,372.947 178.132,372.980 154.800 C 373.016 129.479,368.600 121.200,357.800 126.344 M155.400 151.963 C 136.567 155.504,126.311 166.598,121.716 188.400 C 120.562 193.877,120.696 213.634,121.932 220.200 C 123.568 228.892,125.834 237.216,127.592 241.000 C 127.797 241.440,128.443 242.970,129.028 244.400 C 130.871 248.903,135.523 257.404,137.673 260.200 C 146.738 271.988,153.055 277.999,163.600 284.875 C 178.701 294.722,201.561 301.817,215.791 301.075 L 220.182 300.846 226.991 307.525 C 246.685 326.842,254.135 331.185,259.855 326.685 C 264.777 322.813,262.407 317.402,251.800 308.298 C 236.562 295.219,235.986 294.594,237.993 293.323 C 243.794 289.650,249.611 281.356,252.614 272.476 C 256.114 262.126,257.564 242.416,255.634 231.400 C 253.354 218.378,250.214 208.647,245.717 200.662 C 244.993 199.375,244.400 198.249,244.400 198.158 C 244.400 198.067,243.374 196.419,242.119 194.496 C 231.710 178.540,216.667 166.218,198.800 159.013 C 197.370 158.436,195.840 157.798,195.400 157.596 C 185.453 153.017,165.066 150.146,155.400 151.963 M357.674 152.266 C 362.303 156.452,362.890 178.689,358.972 201.400 C 357.470 210.107,354.153 223.470,353.241 224.488 C 353.099 224.647,352.103 224.512,351.028 224.188 C 344.099 222.103,339.830 225.811,338.376 235.177 C 337.679 239.670,337.968 240.000,342.590 240.000 C 347.034 240.000,346.966 239.886,344.812 243.751 C 338.413 255.233,331.391 258.707,328.034 252.050 C 323.035 242.137,326.049 205.435,333.810 181.731 C 340.652 160.833,351.853 147.002,357.674 152.266 M184.000 177.335 C 210.621 184.293,226.602 207.366,226.571 238.800 C 226.555 255.338,223.291 265.125,215.510 271.963 L 214.420 272.920 209.910 268.484 C 204.920 263.575,204.491 263.183,199.564 259.029 C 188.144 249.400,181.642 247.208,178.941 252.076 C 176.883 255.784,178.945 258.668,190.200 267.821 C 192.620 269.790,195.741 272.480,197.135 273.800 C 198.530 275.120,199.835 276.260,200.035 276.333 C 201.084 276.717,200.290 277.600,198.900 277.597 C 177.053 277.549,156.011 258.902,149.930 234.200 C 146.410 219.900,146.931 200.340,151.041 192.461 C 151.346 191.878,151.596 191.251,151.598 191.070 C 151.605 190.109,155.087 184.984,157.069 183.018 C 163.587 176.552,173.224 174.519,184.000 177.335 " stroke="none" fill="#000000" fill-rule="evenodd"></path><path id="path1" d="M235.505 47.083 C 236.002 47.179,236.722 47.175,237.105 47.075 C 237.487 46.975,237.080 46.896,236.200 46.901 C 235.320 46.905,235.007 46.987,235.505 47.083 M248.705 47.083 C 249.202 47.179,249.922 47.175,250.305 47.075 C 250.687 46.975,250.280 46.896,249.400 46.901 C 248.520 46.905,248.207 46.987,248.705 47.083 M226.600 47.600 L 225.000 47.886 226.400 47.896 C 227.170 47.901,228.340 47.768,229.000 47.600 C 230.628 47.186,228.913 47.186,226.600 47.600 M257.400 47.623 C 258.280 47.805,259.540 47.942,260.200 47.927 C 261.100 47.907,260.950 47.820,259.600 47.580 C 257.186 47.150,255.294 47.187,257.400 47.623 M215.800 49.219 C 215.242 49.471,215.485 49.507,216.600 49.338 C 217.480 49.204,218.275 49.028,218.367 48.947 C 218.710 48.644,216.568 48.871,215.800 49.219 M269.300 49.076 C 269.685 49.176,270.315 49.176,270.700 49.076 C 271.085 48.975,270.770 48.893,270.000 48.893 C 269.230 48.893,268.915 48.975,269.300 49.076 M210.000 50.400 C 209.196 50.657,209.157 50.723,209.800 50.732 C 210.240 50.738,210.960 50.589,211.400 50.400 C 212.419 49.962,211.368 49.962,210.000 50.400 M199.800 53.414 C 198.800 53.896,198.766 53.951,199.600 53.748 C 200.733 53.471,202.007 52.821,201.400 52.830 C 201.180 52.833,200.460 53.096,199.800 53.414 M246.522 56.699 C 248.899 56.770,252.679 56.769,254.922 56.698 C 257.165 56.627,255.220 56.569,250.600 56.569 C 245.980 56.570,244.145 56.628,246.522 56.699 M273.633 59.344 C 273.725 59.423,274.340 59.608,275.000 59.756 C 275.876 59.952,276.038 59.915,275.600 59.618 C 275.060 59.253,273.232 58.998,273.633 59.344 M173.387 68.500 L 171.000 71.000 173.590 68.600 C 175.015 67.280,176.260 66.155,176.357 66.100 C 176.454 66.045,176.363 66.000,176.154 66.000 C 175.946 66.000,174.701 67.125,173.387 68.500 M294.577 73.747 C 294.596 75.991,294.664 76.272,294.948 75.282 C 295.151 74.576,295.141 73.428,294.925 72.535 C 294.587 71.138,294.556 71.246,294.577 73.747 M289.787 83.300 L 287.400 85.800 289.900 83.413 C 291.275 82.099,292.400 80.974,292.400 80.913 C 292.400 80.617,292.005 80.978,289.787 83.300 M228.500 85.487 C 229.105 85.578,230.095 85.578,230.700 85.487 C 231.305 85.395,230.810 85.320,229.600 85.320 C 228.390 85.320,227.895 85.395,228.500 85.487 M223.700 86.012 C 222.361 86.551,222.611 86.824,224.000 86.340 C 224.660 86.110,225.200 85.849,225.200 85.761 C 225.200 85.524,224.713 85.605,223.700 86.012 M321.408 87.500 C 320.549 88.545,320.260 89.040,320.766 88.600 C 321.661 87.822,323.398 85.600,323.112 85.600 C 323.034 85.600,322.267 86.455,321.408 87.500 M171.400 90.800 C 172.259 91.680,173.052 92.400,173.162 92.400 C 173.272 92.400,172.659 91.680,171.800 90.800 C 170.941 89.920,170.148 89.200,170.038 89.200 C 169.928 89.200,170.541 89.920,171.400 90.800 M316.975 92.100 L 315.800 93.400 317.100 92.225 C 317.815 91.579,318.400 90.994,318.400 90.925 C 318.400 90.616,318.070 90.888,316.975 92.100 M215.427 95.955 C 215.852 96.344,218.329 96.996,217.954 96.620 C 217.819 96.486,217.111 96.204,216.381 95.995 C 215.651 95.785,215.222 95.768,215.427 95.955 M221.800 97.600 C 222.240 97.789,222.960 97.938,223.400 97.932 C 224.043 97.923,224.004 97.857,223.200 97.600 C 221.832 97.162,220.781 97.162,221.800 97.600 M260.400 97.600 C 259.596 97.857,259.557 97.923,260.200 97.932 C 260.640 97.938,261.360 97.789,261.800 97.600 C 262.819 97.162,261.768 97.162,260.400 97.600 M231.700 99.087 C 232.305 99.178,233.295 99.178,233.900 99.087 C 234.505 98.995,234.010 98.920,232.800 98.920 C 231.590 98.920,231.095 98.995,231.700 99.087 M207.633 106.544 C 207.725 106.623,208.340 106.808,209.000 106.956 C 209.876 107.152,210.038 107.115,209.600 106.818 C 209.060 106.453,207.232 106.198,207.633 106.544 M283.400 108.000 C 282.896 108.217,282.822 108.344,283.200 108.344 C 283.530 108.344,284.160 108.189,284.600 108.000 C 285.104 107.783,285.178 107.656,284.800 107.656 C 284.470 107.656,283.840 107.811,283.400 108.000 M221.300 109.476 C 221.685 109.576,222.315 109.576,222.700 109.476 C 223.085 109.375,222.770 109.293,222.000 109.293 C 221.230 109.293,220.915 109.375,221.300 109.476 M231.000 110.823 C 231.880 111.005,233.140 111.142,233.800 111.127 C 234.700 111.107,234.550 111.020,233.200 110.780 C 230.786 110.350,228.894 110.387,231.000 110.823 M245.400 111.892 C 246.060 111.987,247.050 112.455,247.600 112.932 L 248.600 113.800 247.630 112.700 C 246.931 111.907,246.318 111.617,245.430 111.660 L 244.200 111.720 245.400 111.892 M286.400 121.325 C 286.400 121.394,286.985 121.979,287.700 122.625 L 289.000 123.800 287.825 122.500 C 286.730 121.288,286.400 121.016,286.400 121.325 M360.880 124.796 C 358.744 125.300,359.063 125.434,362.003 125.268 C 365.113 125.092,366.707 125.780,368.626 128.128 C 369.197 128.828,369.486 129.040,369.267 128.600 C 367.876 125.805,364.017 124.055,360.880 124.796 M357.100 126.229 C 355.549 127.070,355.725 127.361,357.300 126.559 C 358.808 125.793,359.075 125.594,358.567 125.616 C 358.365 125.625,357.705 125.901,357.100 126.229 M270.200 128.000 C 270.640 128.189,271.270 128.344,271.600 128.344 C 271.978 128.344,271.904 128.217,271.400 128.000 C 270.960 127.811,270.330 127.656,270.000 127.656 C 269.622 127.656,269.696 127.783,270.200 128.000 M284.200 128.000 C 283.696 128.217,283.622 128.344,284.000 128.344 C 284.330 128.344,284.960 128.189,285.400 128.000 C 285.904 127.783,285.978 127.656,285.600 127.656 C 285.270 127.656,284.640 127.811,284.200 128.000 M350.660 131.222 C 348.998 132.774,346.890 134.979,345.975 136.122 C 344.552 137.900,344.655 137.830,346.689 135.633 C 347.997 134.221,350.221 132.022,351.633 130.746 C 353.045 129.471,354.083 128.421,353.941 128.413 C 353.798 128.406,352.321 129.670,350.660 131.222 M276.700 129.082 C 277.195 129.178,278.005 129.178,278.500 129.082 C 278.995 128.987,278.590 128.909,277.600 128.909 C 276.610 128.909,276.205 128.987,276.700 129.082 M370.295 131.204 C 370.641 132.087,370.997 132.736,371.086 132.648 C 371.278 132.455,370.123 129.600,369.853 129.600 C 369.749 129.600,369.948 130.322,370.295 131.204 M371.664 135.000 C 371.671 135.440,371.917 136.700,372.210 137.800 L 372.744 139.800 372.516 137.800 C 372.391 136.700,372.145 135.440,371.970 135.000 L 371.651 134.200 371.664 135.000 M341.519 141.700 C 340.357 143.248,339.896 144.000,340.109 144.000 C 340.194 144.000,340.846 143.190,341.557 142.200 C 343.032 140.146,343.000 139.727,341.519 141.700 M373.000 154.883 C 373.000 163.128,373.128 168.085,373.308 166.800 C 373.717 163.885,373.725 143.764,373.318 142.083 C 373.142 141.352,373.000 147.047,373.000 154.883 M338.884 145.500 C 337.927 146.866,337.114 148.400,337.346 148.400 C 337.442 148.400,337.941 147.725,338.454 146.900 C 338.967 146.075,339.534 145.175,339.713 144.900 C 340.366 143.900,339.633 144.430,338.884 145.500 M336.200 150.000 C 335.859 150.660,335.669 151.200,335.779 151.200 C 335.889 151.200,336.259 150.660,336.600 150.000 C 336.941 149.340,337.131 148.800,337.021 148.800 C 336.911 148.800,336.541 149.340,336.200 150.000 M169.300 151.476 C 169.685 151.576,170.315 151.576,170.700 151.476 C 171.085 151.375,170.770 151.293,170.000 151.293 C 169.230 151.293,168.915 151.375,169.300 151.476 M352.500 151.775 C 350.648 152.610,350.888 152.858,352.815 152.101 C 355.452 151.066,357.099 151.705,358.697 154.382 C 360.125 156.774,360.441 156.833,359.243 154.484 C 357.756 151.571,355.217 150.551,352.500 151.775 M153.400 152.000 C 152.330 152.272,152.308 152.305,153.200 152.305 C 153.750 152.305,154.740 152.168,155.400 152.000 C 156.470 151.728,156.492 151.695,155.600 151.695 C 155.050 151.695,154.060 151.832,153.400 152.000 M173.800 152.023 C 174.680 152.205,175.850 152.344,176.400 152.331 C 177.041 152.316,176.826 152.189,175.800 151.977 C 174.920 151.795,173.750 151.656,173.200 151.669 C 172.559 151.684,172.774 151.811,173.800 152.023 M334.600 152.800 C 334.259 153.460,334.069 154.000,334.179 154.000 C 334.289 154.000,334.659 153.460,335.000 152.800 C 335.341 152.140,335.531 151.600,335.421 151.600 C 335.311 151.600,334.941 152.140,334.600 152.800 M148.456 153.259 C 147.717 153.472,147.187 153.720,147.279 153.812 C 147.481 154.014,150.400 153.237,150.400 152.981 C 150.400 152.746,150.082 152.791,148.456 153.259 M180.400 153.156 C 180.730 153.344,181.720 153.608,182.600 153.742 C 183.609 153.897,183.905 153.864,183.400 153.654 C 182.229 153.166,179.674 152.742,180.400 153.156 M347.582 155.563 C 346.089 157.082,344.663 158.747,344.412 159.263 C 344.161 159.778,344.539 159.480,345.252 158.600 C 345.964 157.720,347.521 156.055,348.710 154.900 C 349.900 153.745,350.743 152.800,350.584 152.800 C 350.426 152.800,349.075 154.043,347.582 155.563 M186.600 154.739 C 187.837 155.268,189.910 155.677,189.200 155.251 C 188.870 155.054,187.970 154.780,187.200 154.644 C 186.256 154.477,186.060 154.508,186.600 154.739 M333.326 155.100 C 333.189 155.485,333.001 155.980,332.909 156.200 C 332.816 156.420,333.024 156.251,333.370 155.824 C 333.999 155.048,334.189 154.400,333.787 154.400 C 333.671 154.400,333.463 154.715,333.326 155.100 M191.400 156.214 C 192.060 156.517,192.870 156.758,193.200 156.752 C 193.530 156.745,193.170 156.497,192.400 156.200 C 190.574 155.497,189.855 155.507,191.400 156.214 M140.500 157.026 C 139.565 157.587,138.800 158.140,138.800 158.255 C 138.800 158.471,141.499 156.938,142.180 156.336 C 142.867 155.728,142.227 155.991,140.500 157.026 M332.014 157.574 C 331.507 158.521,331.484 158.919,331.952 158.630 C 332.305 158.412,332.855 156.800,332.577 156.800 C 332.495 156.800,332.242 157.148,332.014 157.574 M195.200 157.431 C 195.200 157.701,197.278 158.456,197.476 158.257 C 197.567 158.167,197.092 157.901,196.420 157.667 C 195.749 157.433,195.200 157.327,195.200 157.431 M198.800 159.000 C 199.350 159.314,199.980 159.572,200.200 159.572 C 200.420 159.572,200.150 159.314,199.600 159.000 C 199.050 158.686,198.420 158.428,198.200 158.428 C 197.980 158.428,198.250 158.686,198.800 159.000 M360.487 159.400 C 360.491 160.060,360.632 161.140,360.800 161.800 L 361.105 163.000 361.113 161.600 C 361.117 160.830,360.976 159.750,360.800 159.200 C 360.489 158.230,360.480 158.235,360.487 159.400 M133.787 162.500 L 131.400 165.000 133.900 162.613 C 136.222 160.395,136.583 160.000,136.287 160.000 C 136.226 160.000,135.101 161.125,133.787 162.500 M330.411 160.971 C 329.817 162.534,329.934 162.780,330.647 161.465 C 330.986 160.840,331.164 160.230,331.042 160.109 C 330.921 159.988,330.637 160.376,330.411 160.971 M342.884 161.500 C 342.460 162.105,341.887 163.050,341.610 163.600 C 340.854 165.102,342.017 163.835,343.171 161.900 C 344.209 160.159,344.014 159.887,342.884 161.500 M207.600 162.979 C 207.600 163.089,208.140 163.459,208.800 163.800 C 209.460 164.141,210.000 164.331,210.000 164.221 C 210.000 164.111,209.460 163.741,208.800 163.400 C 208.140 163.059,207.600 162.869,207.600 162.979 M329.229 163.700 C 329.035 164.195,328.495 165.480,328.028 166.557 C 327.562 167.633,327.252 168.585,327.340 168.673 C 327.428 168.761,327.778 168.151,328.118 167.317 C 328.457 166.482,329.022 165.125,329.373 164.300 C 329.724 163.475,329.914 162.800,329.795 162.800 C 329.677 162.800,329.422 163.205,329.229 163.700 M361.309 165.600 C 361.309 166.590,361.387 166.995,361.482 166.500 C 361.578 166.005,361.578 165.195,361.482 164.700 C 361.387 164.205,361.309 164.610,361.309 165.600 M340.400 165.600 C 340.144 166.078,340.025 166.559,340.135 166.669 C 340.245 166.779,340.544 166.478,340.800 166.000 C 341.056 165.522,341.175 165.041,341.065 164.931 C 340.955 164.821,340.656 165.122,340.400 165.600 M129.353 167.700 C 127.976 170.036,127.886 170.235,128.587 169.400 C 129.400 168.432,130.100 167.200,129.838 167.200 C 129.733 167.200,129.515 167.425,129.353 167.700 M326.444 170.444 C 326.198 171.151,326.066 171.800,326.152 171.885 C 326.238 171.971,326.509 171.462,326.756 170.756 C 327.002 170.049,327.134 169.400,327.048 169.315 C 326.962 169.229,326.691 169.738,326.444 170.444 M337.665 171.417 C 336.995 172.888,337.123 173.202,337.847 171.865 C 338.186 171.240,338.388 170.654,338.296 170.563 C 338.205 170.471,337.921 170.856,337.665 171.417 M372.065 175.099 C 371.577 179.602,371.486 181.447,371.767 181.166 C 372.015 180.918,372.913 171.180,372.707 170.974 C 372.610 170.877,372.321 172.733,372.065 175.099 M220.800 171.306 C 220.800 171.394,221.565 172.074,222.500 172.817 C 223.435 173.560,223.946 173.852,223.636 173.465 C 223.051 172.737,220.800 171.023,220.800 171.306 M126.181 173.237 C 125.829 173.918,125.612 174.545,125.699 174.632 C 125.786 174.719,126.156 174.162,126.522 173.395 C 127.344 171.670,127.059 171.538,126.181 173.237 M324.844 174.844 C 324.598 175.551,324.466 176.200,324.552 176.285 C 324.638 176.371,324.909 175.862,325.156 175.156 C 325.402 174.449,325.534 173.800,325.448 173.715 C 325.362 173.629,325.091 174.138,324.844 174.844 M336.044 175.244 C 335.798 175.951,335.666 176.600,335.752 176.685 C 335.838 176.771,336.109 176.262,336.356 175.556 C 336.602 174.849,336.734 174.200,336.648 174.115 C 336.562 174.029,336.291 174.538,336.044 175.244 M226.000 175.800 C 226.746 176.570,227.447 177.200,227.557 177.200 C 227.667 177.200,227.146 176.570,226.400 175.800 C 225.654 175.030,224.953 174.400,224.843 174.400 C 224.733 174.400,225.254 175.030,226.000 175.800 M361.324 177.400 C 361.326 178.720,361.401 179.212,361.490 178.493 C 361.579 177.774,361.577 176.694,361.486 176.093 C 361.395 175.492,361.322 176.080,361.324 177.400 M173.100 176.293 C 174.035 176.377,175.565 176.377,176.500 176.293 C 177.435 176.209,176.670 176.140,174.800 176.140 C 172.930 176.140,172.165 176.209,173.100 176.293 M169.300 176.676 C 169.685 176.776,170.315 176.776,170.700 176.676 C 171.085 176.575,170.770 176.493,170.000 176.493 C 169.230 176.493,168.915 176.575,169.300 176.676 M179.105 176.683 C 179.602 176.779,180.322 176.775,180.705 176.675 C 181.087 176.575,180.680 176.496,179.800 176.501 C 178.920 176.505,178.607 176.587,179.105 176.683 M323.429 178.829 C 323.084 179.988,322.880 181.013,322.974 181.107 C 323.068 181.202,323.427 180.331,323.771 179.171 C 324.116 178.012,324.320 176.987,324.226 176.893 C 324.132 176.798,323.773 177.669,323.429 178.829 M165.000 177.814 C 164.000 178.296,163.966 178.351,164.800 178.148 C 165.933 177.871,167.207 177.221,166.600 177.230 C 166.380 177.233,165.660 177.496,165.000 177.814 M230.000 179.391 C 231.210 180.706,232.245 181.861,232.300 181.957 C 232.355 182.054,232.485 182.048,232.590 181.944 C 232.694 181.840,231.659 180.685,230.290 179.377 L 227.800 177.000 230.000 179.391 M334.646 179.046 C 334.292 180.085,334.072 181.005,334.156 181.090 C 334.241 181.174,334.600 180.393,334.954 179.354 C 335.308 178.315,335.528 177.395,335.444 177.310 C 335.359 177.226,335.000 178.007,334.646 179.046 M189.200 179.133 C 189.530 179.336,190.250 179.624,190.800 179.771 C 191.495 179.957,191.617 179.925,191.200 179.667 C 190.870 179.464,190.150 179.176,189.600 179.029 C 188.905 178.843,188.783 178.875,189.200 179.133 M123.236 180.836 C 122.966 181.739,122.818 182.552,122.908 182.642 C 122.998 182.732,123.293 182.066,123.564 181.164 C 123.834 180.261,123.982 179.448,123.892 179.358 C 123.802 179.268,123.507 179.934,123.236 180.836 M159.000 181.200 C 158.169 181.860,157.650 182.393,157.845 182.384 C 158.236 182.366,161.109 180.000,160.740 180.000 C 160.613 180.000,159.831 180.540,159.000 181.200 M192.800 180.600 C 193.350 180.914,193.980 181.172,194.200 181.172 C 194.420 181.172,194.150 180.914,193.600 180.600 C 193.050 180.286,192.420 180.028,192.200 180.028 C 191.980 180.028,192.250 180.286,192.800 180.600 M194.800 181.379 C 194.800 181.489,195.340 181.859,196.000 182.200 C 196.660 182.541,197.200 182.731,197.200 182.621 C 197.200 182.511,196.660 182.141,196.000 181.800 C 195.340 181.459,194.800 181.269,194.800 181.379 M360.613 185.122 C 360.447 187.389,360.403 189.336,360.516 189.449 C 360.788 189.721,361.344 182.224,361.103 181.535 C 361.000 181.241,360.780 182.855,360.613 185.122 M322.036 183.236 C 321.766 184.139,321.635 184.969,321.746 185.079 C 321.857 185.190,322.151 184.524,322.400 183.600 C 322.989 181.411,322.677 181.099,322.036 183.236 M333.236 183.236 C 332.966 184.139,332.835 184.969,332.946 185.079 C 333.057 185.190,333.351 184.524,333.600 183.600 C 334.189 181.411,333.877 181.099,333.236 183.236 M234.000 183.800 C 234.746 184.570,235.447 185.200,235.557 185.200 C 235.667 185.200,235.146 184.570,234.400 183.800 C 233.654 183.030,232.953 182.400,232.843 182.400 C 232.733 182.400,233.254 183.030,234.000 183.800 M197.600 182.979 C 197.600 183.089,198.140 183.459,198.800 183.800 C 199.460 184.141,200.000 184.331,200.000 184.221 C 200.000 184.111,199.460 183.741,198.800 183.400 C 198.140 183.059,197.600 182.869,197.600 182.979 M200.400 184.531 C 200.400 184.642,201.345 185.419,202.500 186.260 C 203.655 187.100,205.455 188.580,206.500 189.549 C 207.545 190.517,208.390 191.150,208.378 190.955 C 208.341 190.376,200.400 183.982,200.400 184.531 M121.822 186.222 C 121.672 187.025,121.628 187.762,121.726 187.860 C 121.824 187.957,122.027 187.381,122.178 186.578 C 122.328 185.775,122.372 185.038,122.274 184.940 C 122.176 184.843,121.973 185.419,121.822 186.222 M154.493 185.900 C 153.457 187.396,153.121 188.000,153.323 188.000 C 153.417 188.000,153.970 187.280,154.553 186.400 C 155.736 184.612,155.684 184.179,154.493 185.900 M370.400 188.200 C 370.131 190.094,370.001 191.734,370.111 191.844 C 370.221 191.954,370.531 190.494,370.800 188.600 C 371.069 186.706,371.199 185.066,371.089 184.956 C 370.979 184.846,370.669 186.306,370.400 188.200 M332.000 187.400 C 331.719 188.403,331.581 189.315,331.693 189.427 C 331.806 189.539,332.109 188.792,332.367 187.767 C 332.978 185.340,332.665 185.026,332.000 187.400 M320.433 188.633 C 319.822 191.060,320.135 191.374,320.800 189.000 C 321.081 187.997,321.219 187.085,321.107 186.973 C 320.994 186.861,320.691 187.608,320.433 188.633 M360.093 191.200 C 360.093 191.970,360.175 192.285,360.276 191.900 C 360.376 191.515,360.376 190.885,360.276 190.500 C 360.175 190.115,360.093 190.430,360.093 191.200 M319.200 193.200 C 318.930 194.324,318.803 195.336,318.916 195.449 C 319.029 195.562,319.323 194.717,319.569 193.569 C 320.152 190.854,319.838 190.540,319.200 193.200 M210.400 193.400 C 211.372 194.390,212.242 195.200,212.335 195.200 C 212.673 195.200,209.389 191.674,209.017 191.638 C 208.806 191.617,209.428 192.410,210.400 193.400 M330.400 193.800 C 330.142 195.045,330.007 196.140,330.101 196.234 C 330.195 196.328,330.497 195.400,330.771 194.171 C 331.046 192.943,331.181 191.848,331.071 191.737 C 330.960 191.627,330.658 192.555,330.400 193.800 M120.660 194.090 C 120.521 195.251,120.438 199.710,120.476 204.000 L 120.545 211.800 120.797 202.000 C 120.935 196.610,121.018 192.151,120.981 192.090 C 120.944 192.030,120.800 192.930,120.660 194.090 M150.379 193.855 C 150.158 194.436,150.052 194.985,150.143 195.076 C 150.233 195.167,150.499 194.692,150.733 194.020 C 151.253 192.528,150.939 192.382,150.379 193.855 M359.239 197.045 C 358.974 198.940,358.835 200.569,358.931 200.664 C 359.130 200.863,359.441 199.205,359.825 195.900 C 360.244 192.294,359.776 193.210,359.239 197.045 M368.825 197.425 C 368.569 198.893,368.437 200.171,368.531 200.265 C 368.626 200.359,368.926 199.250,369.200 197.800 C 369.474 196.350,369.606 195.072,369.494 194.960 C 369.381 194.848,369.081 195.957,368.825 197.425 M149.000 198.400 C 148.848 199.091,148.807 199.741,148.909 199.842 C 149.011 199.944,149.209 199.453,149.350 198.750 C 149.683 197.083,149.360 196.760,149.000 198.400 M317.600 199.800 C 317.342 201.045,317.220 202.153,317.330 202.263 C 317.440 202.373,317.742 201.445,318.000 200.200 C 318.258 198.955,318.380 197.847,318.270 197.737 C 318.160 197.627,317.858 198.555,317.600 199.800 M329.000 200.400 C 328.846 201.310,328.811 202.144,328.921 202.254 C 329.031 202.364,329.246 201.710,329.400 200.800 C 329.554 199.890,329.589 199.056,329.479 198.946 C 329.369 198.836,329.154 199.490,329.000 200.400 M246.200 201.600 C 246.541 202.260,246.911 202.800,247.021 202.800 C 247.131 202.800,246.941 202.260,246.600 201.600 C 246.259 200.940,245.889 200.400,245.779 200.400 C 245.669 200.400,245.859 200.940,246.200 201.600 M367.600 203.400 C 367.342 204.645,367.220 205.753,367.330 205.863 C 367.440 205.973,367.742 205.045,368.000 203.800 C 368.258 202.555,368.380 201.447,368.270 201.337 C 368.160 201.227,367.858 202.155,367.600 203.400 M147.859 204.688 C 147.721 205.519,147.634 207.460,147.664 209.000 C 147.713 211.508,147.750 211.362,148.018 207.600 C 148.333 203.184,148.277 202.159,147.859 204.688 M316.405 205.377 C 316.149 206.610,316.015 207.839,316.106 208.109 C 316.198 208.379,316.479 207.442,316.730 206.026 C 317.296 202.833,317.039 202.321,316.405 205.377 M357.700 206.181 C 357.441 207.711,357.297 209.031,357.380 209.113 C 357.629 209.362,358.469 204.850,358.314 204.098 C 358.235 203.714,357.959 204.652,357.700 206.181 M327.651 208.201 C 327.175 211.398,327.091 212.643,327.367 212.366 C 327.624 212.110,328.473 205.540,328.276 205.342 C 328.180 205.247,327.899 206.533,327.651 208.201 M220.028 207.800 C 220.028 208.020,220.286 208.650,220.600 209.200 C 220.914 209.750,221.172 210.020,221.172 209.800 C 221.172 209.580,220.914 208.950,220.600 208.400 C 220.286 207.850,220.028 207.580,220.028 207.800 M366.062 210.062 C 365.800 211.194,365.659 212.193,365.748 212.281 C 365.837 212.370,366.130 211.524,366.400 210.400 C 366.670 209.276,366.811 208.277,366.713 208.180 C 366.616 208.083,366.323 208.930,366.062 210.062 M356.400 212.200 C 356.142 213.445,356.010 214.543,356.108 214.641 C 356.206 214.739,356.491 213.795,356.743 212.543 C 356.994 211.291,357.126 210.192,357.035 210.102 C 356.944 210.011,356.658 210.955,356.400 212.200 M314.821 214.232 C 314.552 215.900,314.415 217.349,314.518 217.451 C 314.708 217.642,314.957 216.452,315.425 213.100 C 315.860 209.992,315.351 210.945,314.821 214.232 M120.901 213.400 C 120.905 214.280,120.987 214.593,121.083 214.095 C 121.179 213.598,121.175 212.878,121.075 212.495 C 120.975 212.113,120.896 212.520,120.901 213.400 M364.800 215.000 C 364.519 216.003,364.381 216.915,364.493 217.027 C 364.606 217.139,364.909 216.392,365.167 215.367 C 365.778 212.940,365.465 212.626,364.800 215.000 M326.893 214.800 C 326.893 215.570,326.975 215.885,327.076 215.500 C 327.176 215.115,327.176 214.485,327.076 214.100 C 326.975 213.715,326.893 214.030,326.893 214.800 M251.648 214.400 C 251.642 214.730,251.883 215.540,252.186 216.200 C 252.893 217.745,252.903 217.026,252.200 215.200 C 251.903 214.430,251.655 214.070,251.648 214.400 M147.623 218.833 C 147.636 220.465,147.791 222.520,147.969 223.400 C 148.170 224.398,148.215 223.344,148.090 220.600 C 147.859 215.515,147.589 214.497,147.623 218.833 M354.852 218.159 C 354.584 219.225,354.450 220.184,354.556 220.289 C 354.822 220.555,355.682 217.246,355.494 216.681 C 355.409 216.428,355.121 217.093,354.852 218.159 M326.306 219.400 C 326.150 220.940,325.937 224.540,325.834 227.400 L 325.646 232.600 326.222 225.800 C 326.540 222.060,326.752 218.460,326.695 217.800 C 326.637 217.140,326.462 217.860,326.306 219.400 M363.236 220.436 C 362.966 221.339,362.835 222.169,362.946 222.279 C 363.057 222.390,363.351 221.724,363.600 220.800 C 364.189 218.611,363.877 218.299,363.236 220.436 M121.695 220.000 C 121.695 220.550,121.832 221.540,122.000 222.200 C 122.272 223.270,122.305 223.292,122.305 222.400 C 122.305 221.850,122.168 220.860,122.000 220.200 C 121.728 219.130,121.695 219.108,121.695 220.000 M253.268 219.800 C 253.262 220.240,253.411 220.960,253.600 221.400 C 254.038 222.419,254.038 221.368,253.600 220.000 C 253.343 219.196,253.277 219.157,253.268 219.800 M224.468 220.800 C 224.488 221.839,225.118 223.546,225.132 222.600 C 225.138 222.160,224.989 221.440,224.800 221.000 C 224.589 220.510,224.461 220.432,224.468 220.800 M313.600 221.718 C 313.600 222.076,313.402 224.188,313.160 226.411 C 312.918 228.635,312.806 230.539,312.911 230.644 C 313.015 230.749,313.325 228.749,313.600 226.200 C 313.875 223.651,313.987 221.454,313.850 221.316 C 313.712 221.179,313.600 221.360,313.600 221.718 M353.582 222.673 C 353.308 223.513,352.885 224.349,352.642 224.530 C 352.350 224.748,352.393 224.809,352.768 224.708 C 353.311 224.561,354.576 221.643,354.241 221.308 C 354.153 221.219,353.856 221.833,353.582 222.673 M361.886 224.886 C 361.521 226.025,361.290 227.023,361.371 227.104 C 361.452 227.185,361.825 226.329,362.200 225.200 C 362.575 224.071,362.806 223.073,362.715 222.981 C 362.623 222.890,362.250 223.747,361.886 224.886 M344.176 223.795 C 343.469 224.337,343.518 224.350,344.737 223.942 C 346.006 223.519,349.670 223.643,351.400 224.169 C 351.840 224.303,351.660 224.147,351.000 223.824 C 349.396 223.038,345.188 223.020,344.176 223.795 M254.670 226.200 C 254.802 227.300,255.059 228.560,255.241 229.000 C 255.644 229.978,255.213 226.642,254.750 225.200 C 254.553 224.584,254.522 224.969,254.670 226.200 M123.050 227.200 C 123.190 227.970,123.461 228.960,123.654 229.400 C 123.894 229.949,123.924 229.761,123.750 228.800 C 123.610 228.030,123.339 227.040,123.146 226.600 C 122.906 226.051,122.876 226.239,123.050 227.200 M148.880 229.400 C 148.880 229.840,149.024 230.650,149.200 231.200 C 149.454 231.992,149.520 232.033,149.520 231.400 C 149.520 230.960,149.376 230.150,149.200 229.600 C 148.946 228.808,148.880 228.767,148.880 229.400 M226.120 230.800 C 226.120 232.010,226.195 232.505,226.287 231.900 C 226.378 231.295,226.378 230.305,226.287 229.700 C 226.195 229.095,226.120 229.590,226.120 230.800 M367.674 229.256 C 368.997 229.740,369.357 231.116,369.051 234.522 C 368.904 236.159,368.946 236.661,369.174 236.000 C 370.306 232.729,369.264 228.743,367.300 228.832 C 366.849 228.852,366.982 229.003,367.674 229.256 M339.200 230.400 C 338.921 231.074,338.786 231.719,338.900 231.833 C 339.014 231.947,339.309 231.462,339.556 230.756 C 340.138 229.086,339.859 228.808,339.200 230.400 M338.039 234.392 C 337.445 237.160,337.487 238.499,338.195 239.424 C 338.742 240.138,338.756 240.101,338.376 238.960 C 338.094 238.111,338.092 236.919,338.372 235.183 C 338.869 232.096,338.645 231.564,338.039 234.392 M312.145 235.870 C 311.642 240.657,311.781 262.701,312.326 264.600 L 312.786 266.200 312.599 264.400 C 312.069 259.296,311.949 247.050,312.365 240.447 C 312.842 232.854,312.723 230.369,312.145 235.870 M226.558 238.600 C 226.558 241.680,226.621 242.887,226.697 241.282 C 226.773 239.678,226.773 237.158,226.696 235.682 C 226.619 234.207,226.557 235.520,226.558 238.600 M256.114 235.800 C 256.117 236.900,256.195 237.303,256.287 236.695 C 256.379 236.086,256.377 235.186,256.282 234.695 C 256.187 234.203,256.111 234.700,256.114 235.800 M150.434 236.200 C 150.422 236.640,150.587 237.270,150.800 237.600 C 151.314 238.395,151.314 237.396,150.800 236.200 L 150.456 235.400 150.434 236.200 M325.836 241.400 C 325.949 243.600,326.193 246.030,326.380 246.800 C 326.879 248.865,326.811 247.190,326.185 242.000 L 325.630 237.400 325.836 241.400 M256.568 245.800 C 256.568 250.200,256.626 252.055,256.698 249.921 C 256.770 247.788,256.770 244.188,256.699 241.921 C 256.627 239.655,256.568 241.400,256.568 245.800 M367.640 240.240 C 367.410 241.073,367.289 241.822,367.371 241.904 C 367.453 241.986,367.736 241.399,368.000 240.600 C 368.264 239.801,368.385 239.052,368.269 238.936 C 368.153 238.820,367.870 239.407,367.640 240.240 M151.829 240.400 C 151.976 240.950,152.264 241.670,152.467 242.000 C 152.725 242.417,152.757 242.295,152.571 241.600 C 152.424 241.050,152.136 240.330,151.933 240.000 C 151.675 239.583,151.643 239.705,151.829 240.400 M339.905 240.283 C 340.402 240.379,341.122 240.375,341.505 240.275 C 341.887 240.175,341.480 240.096,340.600 240.101 C 339.720 240.105,339.407 240.187,339.905 240.283 M127.667 242.020 C 127.901 242.692,128.167 243.167,128.257 243.076 C 128.456 242.878,127.701 240.800,127.431 240.800 C 127.327 240.800,127.433 241.349,127.667 242.020 M366.163 244.082 C 365.744 245.012,364.809 246.364,364.087 247.086 C 363.364 247.809,362.943 248.400,363.151 248.400 C 363.987 248.400,367.590 243.057,367.090 242.557 C 367.000 242.466,366.582 243.153,366.163 244.082 M152.828 243.000 C 152.828 243.220,153.086 243.850,153.400 244.400 C 153.714 244.950,153.972 245.220,153.972 245.000 C 153.972 244.780,153.714 244.150,153.400 243.600 C 153.086 243.050,152.828 242.780,152.828 243.000 M226.124 246.600 C 226.126 247.920,226.201 248.412,226.290 247.693 C 226.379 246.974,226.377 245.894,226.286 245.293 C 226.195 244.692,226.122 245.280,226.124 246.600 M343.446 245.400 C 343.091 245.950,342.509 246.895,342.153 247.500 L 341.505 248.600 342.365 247.600 C 343.267 246.552,344.538 244.400,344.256 244.400 C 344.166 244.400,343.801 244.850,343.446 245.400 M352.180 249.240 C 351.611 250.363,351.307 251.181,351.503 251.060 C 351.700 250.938,352.195 250.099,352.603 249.194 C 353.204 247.861,353.501 247.592,354.172 247.772 C 356.321 248.348,356.911 248.375,355.600 247.836 C 353.480 246.965,353.294 247.041,352.180 249.240 M359.300 249.076 C 359.685 249.176,360.315 249.176,360.700 249.076 C 361.085 248.975,360.770 248.893,360.000 248.893 C 359.230 248.893,358.915 248.975,359.300 249.076 M182.700 249.482 C 183.195 249.578,184.005 249.578,184.500 249.482 C 184.995 249.387,184.590 249.309,183.600 249.309 C 182.610 249.309,182.205 249.387,182.700 249.482 M338.400 251.898 C 336.880 253.473,336.371 254.165,337.174 253.564 C 338.390 252.656,341.546 249.196,341.152 249.203 C 341.068 249.204,339.830 250.417,338.400 251.898 M327.223 249.916 C 327.064 253.485,333.066 257.114,335.335 254.820 C 335.691 254.460,335.537 254.449,334.674 254.775 C 331.802 255.859,329.690 254.773,328.169 251.428 C 327.661 250.313,327.236 249.632,327.223 249.916 M179.382 250.982 C 178.842 251.522,178.405 252.197,178.412 252.482 C 178.419 252.767,178.622 252.640,178.864 252.200 C 179.106 251.760,179.686 251.089,180.152 250.709 C 180.618 250.329,180.857 250.014,180.682 250.009 C 180.507 250.004,179.922 250.442,179.382 250.982 M189.200 251.315 C 189.200 251.406,190.133 252.060,191.273 252.769 C 192.413 253.478,193.143 253.813,192.896 253.515 C 192.424 252.947,189.200 251.027,189.200 251.315 M159.675 255.460 C 160.404 256.483,161.720 258.069,162.600 258.984 C 163.480 259.898,163.731 260.096,163.157 259.423 C 162.584 258.751,161.347 257.165,160.409 255.900 C 158.375 253.156,157.781 252.800,159.675 255.460 M193.600 254.111 C 193.600 254.199,194.725 255.139,196.100 256.198 C 197.475 257.258,198.284 257.767,197.898 257.329 C 197.168 256.501,193.600 253.830,193.600 254.111 M224.650 255.250 C 224.509 255.953,224.469 256.602,224.559 256.692 C 224.650 256.783,224.848 256.291,225.000 255.600 C 225.152 254.909,225.193 254.259,225.091 254.158 C 224.989 254.056,224.791 254.547,224.650 255.250 M256.114 255.800 C 256.117 256.900,256.195 257.303,256.287 256.695 C 256.379 256.086,256.377 255.186,256.282 254.695 C 256.187 254.203,256.111 254.700,256.114 255.800 M349.481 254.300 C 349.389 254.465,348.809 255.500,348.191 256.600 C 347.574 257.700,347.254 258.420,347.481 258.200 C 348.060 257.639,350.122 254.000,349.862 254.000 C 349.744 254.000,349.572 254.135,349.481 254.300 M223.286 259.861 C 223.039 260.665,222.996 261.160,223.190 260.961 C 223.582 260.561,224.189 258.400,223.910 258.400 C 223.814 258.400,223.532 259.058,223.286 259.861 M346.511 259.300 C 345.729 260.311,345.463 260.932,345.936 260.640 C 346.410 260.347,347.357 258.800,347.063 258.800 C 346.972 258.800,346.724 259.025,346.511 259.300 M180.000 259.325 C 180.000 259.394,180.585 259.979,181.300 260.625 L 182.600 261.800 181.425 260.500 C 180.330 259.288,180.000 259.016,180.000 259.325 M201.600 260.525 C 201.600 260.594,202.185 261.179,202.900 261.825 L 204.200 263.000 203.025 261.700 C 201.930 260.488,201.600 260.216,201.600 260.525 M165.200 262.162 C 166.305 263.398,170.800 267.375,170.800 267.116 C 170.800 267.026,169.315 265.623,167.500 263.998 C 165.685 262.373,164.650 261.547,165.200 262.162 M343.607 263.700 C 339.178 270.027,334.276 275.508,330.000 278.916 C 329.230 279.529,328.993 279.844,329.473 279.616 C 332.075 278.378,342.103 267.223,344.923 262.429 C 346.102 260.423,345.481 261.024,343.607 263.700 M255.000 263.200 C 254.846 264.110,254.804 264.938,254.907 265.040 C 255.010 265.143,255.213 264.477,255.360 263.560 C 255.507 262.643,255.548 261.815,255.453 261.720 C 255.358 261.624,255.154 262.290,255.000 263.200 M186.000 264.549 C 186.000 264.659,187.350 265.852,189.000 267.200 C 190.650 268.548,192.000 269.561,192.000 269.451 C 192.000 269.341,190.650 268.148,189.000 266.800 C 187.350 265.452,186.000 264.439,186.000 264.549 M208.400 267.000 C 209.817 268.430,211.067 269.600,211.177 269.600 C 211.287 269.600,210.217 268.430,208.800 267.000 C 207.383 265.570,206.133 264.400,206.023 264.400 C 205.913 264.400,206.983 265.570,208.400 267.000 M218.867 267.977 C 218.170 268.844,217.600 269.667,217.600 269.807 C 217.600 270.036,218.433 269.080,219.958 267.100 C 221.052 265.682,220.092 266.452,218.867 267.977 M144.000 268.600 C 144.746 269.370,145.447 270.000,145.557 270.000 C 145.667 270.000,145.146 269.370,144.400 268.600 C 143.654 267.830,142.953 267.200,142.843 267.200 C 142.733 267.200,143.254 267.830,144.000 268.600 M313.035 268.600 C 313.298 270.569,314.003 273.331,314.193 273.140 C 314.270 273.063,313.993 271.650,313.577 270.000 C 313.161 268.350,312.917 267.720,313.035 268.600 M253.429 269.829 C 253.281 270.415,253.238 270.972,253.332 271.066 C 253.427 271.160,253.624 270.758,253.771 270.171 C 253.919 269.585,253.962 269.028,253.868 268.934 C 253.773 268.840,253.576 269.242,253.429 269.829 M177.200 271.379 C 177.200 271.489,177.740 271.859,178.400 272.200 C 179.060 272.541,179.600 272.731,179.600 272.621 C 179.600 272.511,179.060 272.141,178.400 271.800 C 177.740 271.459,177.200 271.269,177.200 271.379 M213.700 272.208 C 214.389 272.959,214.411 272.959,215.100 272.208 C 215.767 271.480,215.767 271.469,215.100 271.971 C 214.521 272.407,214.279 272.407,213.700 271.971 C 213.033 271.469,213.033 271.480,213.700 272.208 M180.800 273.400 C 181.350 273.714,181.980 273.972,182.200 273.972 C 182.420 273.972,182.150 273.714,181.600 273.400 C 181.050 273.086,180.420 272.828,180.200 272.828 C 179.980 272.828,180.250 273.086,180.800 273.400 M197.964 274.890 L 200.127 277.154 197.964 277.303 L 195.800 277.452 198.100 277.526 C 201.012 277.620,201.006 277.210,198.057 274.613 L 195.800 272.626 197.964 274.890 M252.044 274.044 C 251.798 274.751,251.666 275.400,251.752 275.485 C 251.838 275.571,252.109 275.062,252.356 274.356 C 252.602 273.649,252.734 273.000,252.648 272.915 C 252.562 272.829,252.291 273.338,252.044 274.044 M314.414 274.220 C 314.422 274.429,314.699 275.050,315.031 275.600 L 315.633 276.600 315.372 275.600 C 315.099 274.557,314.389 273.533,314.414 274.220 M151.200 275.800 C 151.946 276.570,152.647 277.200,152.757 277.200 C 152.867 277.200,152.346 276.570,151.600 275.800 C 150.854 275.030,150.153 274.400,150.043 274.400 C 149.933 274.400,150.454 275.030,151.200 275.800 M184.000 274.733 C 184.330 274.936,185.050 275.224,185.600 275.371 C 186.295 275.557,186.417 275.525,186.000 275.267 C 185.670 275.064,184.950 274.776,184.400 274.629 C 183.705 274.443,183.583 274.475,184.000 274.733 M189.000 276.400 C 189.440 276.589,190.160 276.738,190.600 276.732 C 191.243 276.723,191.204 276.657,190.400 276.400 C 189.032 275.962,187.981 275.962,189.000 276.400 M316.174 277.841 C 317.571 280.802,321.575 282.940,324.091 282.067 L 325.400 281.612 323.916 281.778 C 320.949 282.110,318.067 280.495,316.094 277.395 C 315.816 276.958,315.852 277.158,316.174 277.841 M154.646 278.678 C 155.551 279.515,157.171 280.814,158.246 281.564 C 160.967 283.462,160.006 282.549,156.200 279.619 C 154.440 278.264,153.741 277.841,154.646 278.678 M247.800 282.800 C 247.459 283.460,247.269 284.000,247.379 284.000 C 247.489 284.000,247.859 283.460,248.200 282.800 C 248.541 282.140,248.731 281.600,248.621 281.600 C 248.511 281.600,248.141 282.140,247.800 282.800 M243.978 287.900 L 242.600 289.400 244.100 288.022 C 245.496 286.738,245.784 286.400,245.478 286.400 C 245.412 286.400,244.737 287.075,243.978 287.900 M167.200 287.379 C 167.200 287.489,167.740 287.859,168.400 288.200 C 169.060 288.541,169.600 288.731,169.600 288.621 C 169.600 288.511,169.060 288.141,168.400 287.800 C 167.740 287.459,167.200 287.269,167.200 287.379 M240.581 291.300 L 239.000 293.000 240.700 291.419 C 241.635 290.549,242.400 289.784,242.400 289.719 C 242.400 289.416,242.052 289.719,240.581 291.300 M176.400 292.200 C 176.950 292.514,177.580 292.772,177.800 292.772 C 178.020 292.772,177.750 292.514,177.200 292.200 C 176.650 291.886,176.020 291.628,175.800 291.628 C 175.580 291.628,175.850 291.886,176.400 292.200 M182.800 294.733 C 183.130 294.936,183.850 295.224,184.400 295.371 C 185.095 295.557,185.217 295.525,184.800 295.267 C 184.470 295.064,183.750 294.776,183.200 294.629 C 182.505 294.443,182.383 294.475,182.800 294.733 M236.800 294.925 C 236.800 294.994,237.385 295.579,238.100 296.225 L 239.400 297.400 238.225 296.100 C 237.130 294.888,236.800 294.616,236.800 294.925 M191.000 297.600 C 191.440 297.789,192.070 297.944,192.400 297.944 C 192.778 297.944,192.704 297.817,192.200 297.600 C 191.760 297.411,191.130 297.256,190.800 297.256 C 190.422 297.256,190.496 297.383,191.000 297.600 M241.400 299.200 C 242.483 300.300,243.460 301.200,243.570 301.200 C 243.680 301.200,242.883 300.300,241.800 299.200 C 240.717 298.100,239.740 297.200,239.630 297.200 C 239.520 297.200,240.317 298.100,241.400 299.200 M197.000 299.200 C 197.440 299.389,198.160 299.538,198.600 299.532 C 199.243 299.523,199.204 299.457,198.400 299.200 C 197.032 298.762,195.981 298.762,197.000 299.200 M205.400 300.823 C 206.280 301.005,207.540 301.142,208.200 301.127 C 209.100 301.107,208.950 301.020,207.600 300.780 C 205.186 300.350,203.294 300.387,205.400 300.823 M218.800 301.087 C 219.977 301.221,221.157 302.184,226.200 307.123 L 232.200 313.000 226.205 306.900 C 220.610 301.207,220.116 300.804,218.805 300.864 L 217.400 300.928 218.800 301.087 M244.400 301.725 C 244.400 301.794,244.985 302.379,245.700 303.025 L 247.000 304.200 245.825 302.900 C 244.730 301.688,244.400 301.416,244.400 301.725 M247.600 304.514 C 247.600 304.618,248.628 305.580,249.884 306.651 C 251.140 307.723,252.039 308.391,251.883 308.136 C 251.539 307.577,247.600 304.246,247.600 304.514 M253.600 309.800 C 254.346 310.570,255.047 311.200,255.157 311.200 C 255.267 311.200,254.746 310.570,254.000 309.800 C 253.254 309.030,252.553 308.400,252.443 308.400 C 252.333 308.400,252.854 309.030,253.600 309.800 M234.600 315.200 C 235.683 316.300,236.660 317.200,236.770 317.200 C 236.880 317.200,236.083 316.300,235.000 315.200 C 233.917 314.100,232.940 313.200,232.830 313.200 C 232.720 313.200,233.517 314.100,234.600 315.200 M237.235 317.700 C 237.328 317.755,238.033 318.340,238.802 319.000 L 240.200 320.200 239.025 318.900 C 238.379 318.185,237.674 317.600,237.458 317.600 C 237.243 317.600,237.143 317.645,237.235 317.700 M242.000 321.597 C 243.607 323.045,245.600 324.534,245.600 324.286 C 245.600 324.194,244.475 323.267,243.100 322.227 C 241.725 321.186,241.230 320.903,242.000 321.597 M262.101 322.200 C 262.105 323.080,262.187 323.393,262.283 322.895 C 262.379 322.398,262.375 321.678,262.275 321.295 C 262.175 320.913,262.096 321.320,262.101 322.200 M257.800 327.814 C 256.795 328.298,256.763 328.353,257.600 328.151 C 258.150 328.019,258.771 327.750,258.980 327.555 C 259.498 327.071,259.214 327.133,257.800 327.814 M252.200 328.000 C 252.640 328.189,253.270 328.344,253.600 328.344 C 253.978 328.344,253.904 328.217,253.400 328.000 C 252.960 327.811,252.330 327.656,252.000 327.656 C 251.622 327.656,251.696 327.783,252.200 328.000 " stroke="none" fill="#6a6a6a" fill-rule="evenodd"></path><path id="path2" d="M392.184 64.326 C 390.855 65.577,387.627 68.580,385.010 71.000 C 382.394 73.420,378.846 76.754,377.126 78.410 C 375.407 80.065,374.000 81.356,374.000 81.278 C 374.000 81.200,373.055 82.035,371.900 83.135 C 370.745 84.234,369.260 85.626,368.600 86.228 C 367.122 87.576,358.357 95.723,354.811 99.046 C 353.375 100.391,351.139 102.461,349.843 103.646 C 348.547 104.831,346.911 106.340,346.208 107.000 C 344.090 108.988,334.809 117.621,331.802 120.400 C 330.255 121.830,326.746 125.070,324.004 127.600 C 321.262 130.130,317.845 133.343,316.410 134.739 C 314.974 136.136,313.511 137.486,313.158 137.739 C 312.805 137.993,310.195 140.376,307.358 143.036 C 304.521 145.697,301.450 148.539,300.533 149.354 C 298.510 151.150,298.852 147.866,297.004 183.200 C 296.894 185.290,296.535 191.950,296.206 198.000 C 295.006 220.033,294.775 224.337,294.395 231.800 C 294.181 235.980,293.735 244.350,293.402 250.400 C 293.069 256.450,292.437 268.060,291.996 276.200 C 290.777 298.702,290.042 312.237,289.594 320.400 C 289.371 324.470,288.918 333.020,288.588 339.400 C 288.258 345.780,287.829 353.520,287.636 356.600 C 287.443 359.680,287.328 362.247,287.380 362.304 C 287.560 362.502,291.400 357.410,291.300 357.105 C 291.245 356.937,291.353 356.800,291.541 356.800 C 291.908 356.800,295.878 351.898,295.682 351.685 C 295.618 351.614,295.917 351.251,296.347 350.878 C 296.777 350.505,299.879 346.690,303.240 342.400 C 306.601 338.110,309.461 334.510,309.594 334.400 C 309.728 334.290,310.721 333.030,311.800 331.600 C 312.879 330.170,313.869 328.910,313.998 328.800 C 314.128 328.690,319.210 322.271,325.290 314.536 C 331.371 306.800,336.618 300.140,336.949 299.736 C 338.083 298.350,341.011 294.639,350.920 282.026 C 361.156 268.996,363.049 266.618,363.794 265.849 C 364.033 265.602,364.761 264.680,365.412 263.800 C 366.063 262.920,366.696 262.110,366.819 262.000 C 367.788 261.134,371.507 256.041,371.313 255.847 C 371.178 255.711,371.266 255.600,371.510 255.600 C 371.754 255.600,372.798 254.502,373.830 253.161 L 375.707 250.722 376.247 245.261 C 376.545 242.257,376.974 237.820,377.201 235.400 C 377.428 232.980,377.873 228.750,378.190 226.000 C 378.507 223.250,378.754 220.460,378.738 219.800 C 378.723 219.140,378.981 216.620,379.311 214.200 C 379.641 211.780,380.029 208.360,380.172 206.600 C 380.316 204.840,380.676 201.150,380.973 198.400 C 381.270 195.650,381.525 192.860,381.538 192.200 C 381.552 191.540,381.737 189.740,381.949 188.200 C 382.162 186.660,382.620 182.430,382.968 178.800 C 383.317 175.170,383.761 170.850,383.956 169.200 C 384.150 167.550,384.315 165.570,384.321 164.800 C 384.328 164.030,384.617 161.330,384.964 158.800 C 385.311 156.270,385.686 152.760,385.798 151.000 C 385.909 149.240,386.173 146.450,386.384 144.800 C 386.596 143.150,386.958 139.730,387.191 137.200 C 387.423 134.670,387.882 130.350,388.212 127.600 C 388.541 124.850,388.791 122.060,388.766 121.400 C 388.742 120.740,388.989 118.220,389.317 115.800 C 389.644 113.380,390.029 109.960,390.172 108.200 C 390.316 106.440,390.676 102.750,390.973 100.000 C 391.270 97.250,391.525 94.460,391.538 93.800 C 391.552 93.140,391.737 91.340,391.949 89.800 C 392.162 88.260,392.619 84.030,392.966 80.400 C 393.313 76.770,393.786 72.517,394.018 70.949 C 394.250 69.381,394.321 67.623,394.175 67.041 C 394.029 66.460,394.125 65.465,394.387 64.830 C 395.523 62.089,394.750 61.912,392.184 64.326 M319.200 90.200 C 318.228 91.190,317.523 92.000,317.633 92.000 C 317.743 92.000,318.628 91.190,319.600 90.200 C 320.572 89.210,321.277 88.400,321.167 88.400 C 321.057 88.400,320.172 89.210,319.200 90.200 M242.500 111.876 C 242.885 111.976,243.515 111.976,243.900 111.876 C 244.285 111.775,243.970 111.693,243.200 111.693 C 242.430 111.693,242.115 111.775,242.500 111.876 M365.778 125.306 C 367.230 125.868,368.813 127.600,370.056 129.988 C 370.575 130.985,371.099 131.890,371.219 132.000 C 371.340 132.110,371.464 132.610,371.495 133.110 C 371.526 133.611,371.830 134.578,372.170 135.259 C 372.509 135.940,372.701 136.637,372.596 136.807 C 372.490 136.978,372.693 138.711,373.046 140.659 C 373.833 144.996,373.949 161.514,373.230 167.000 C 372.971 168.980,372.708 172.220,372.646 174.200 C 372.584 176.180,372.430 178.070,372.304 178.400 C 371.845 179.607,371.270 184.381,371.485 185.205 C 371.607 185.671,371.524 186.446,371.301 186.926 C 370.710 188.197,369.526 195.156,369.819 195.631 C 369.957 195.853,369.897 196.252,369.686 196.518 C 369.476 196.783,368.995 198.620,368.617 200.600 C 368.239 202.580,367.671 205.118,367.354 206.239 C 367.038 207.361,366.893 208.576,367.032 208.939 C 367.172 209.303,367.120 209.600,366.918 209.600 C 366.565 209.600,365.694 212.437,365.434 214.435 C 365.364 214.966,365.086 215.940,364.815 216.600 C 364.544 217.260,364.297 218.250,364.266 218.800 C 364.235 219.350,364.109 219.890,363.985 220.000 C 363.557 220.381,362.404 224.483,362.625 224.841 C 362.747 225.038,362.696 225.200,362.511 225.200 C 361.869 225.200,361.155 227.725,361.701 228.063 C 362.434 228.515,366.288 228.929,367.050 228.636 C 369.124 227.840,370.528 231.898,369.435 235.525 C 369.124 236.556,368.473 238.698,367.989 240.285 C 367.505 241.872,367.133 243.271,367.163 243.393 C 367.193 243.516,367.035 243.837,366.813 244.108 C 366.592 244.379,365.823 245.396,365.105 246.369 C 362.821 249.463,360.920 249.707,354.139 247.773 C 353.327 247.541,352.461 248.718,352.721 249.700 C 352.764 249.865,352.641 250.000,352.446 250.000 C 352.251 250.000,351.771 250.675,351.379 251.500 C 350.988 252.325,349.876 254.339,348.909 255.976 C 347.941 257.612,347.116 259.136,347.075 259.362 C 347.034 259.587,346.640 260.087,346.200 260.473 C 345.760 260.858,345.533 261.179,345.696 261.187 C 345.859 261.194,345.735 261.515,345.420 261.900 C 344.485 263.044,340.166 268.969,339.976 269.369 C 339.879 269.572,339.350 270.208,338.800 270.782 C 338.250 271.356,337.245 272.450,336.566 273.213 C 335.186 274.764,329.600 279.984,329.600 279.723 C 329.600 279.630,329.060 279.874,328.400 280.264 C 327.740 280.654,327.200 281.124,327.200 281.310 C 327.200 281.495,327.036 281.546,326.836 281.422 C 326.636 281.299,325.617 281.564,324.571 282.012 L 322.670 282.827 320.835 281.975 C 317.979 280.650,314.566 276.451,314.191 273.800 C 313.976 272.287,313.438 270.800,313.103 270.800 C 312.885 270.800,312.799 270.449,312.911 270.019 C 313.023 269.589,312.868 267.834,312.565 266.119 C 312.263 264.404,312.012 261.965,312.008 260.700 C 312.004 259.435,311.820 258.400,311.600 258.400 C 311.348 258.400,311.200 255.675,311.200 251.024 C 311.200 246.537,311.357 243.550,311.600 243.400 C 311.820 243.264,312.001 241.678,312.003 239.876 C 312.005 238.074,312.188 235.482,312.409 234.115 C 312.631 232.748,312.873 230.048,312.946 228.115 C 313.020 226.182,313.177 224.330,313.296 224.000 C 313.791 222.627,314.386 218.030,314.149 217.413 C 314.009 217.046,314.081 216.353,314.311 215.873 C 314.929 214.578,316.007 208.485,315.741 207.791 C 315.614 207.460,315.680 206.967,315.888 206.695 C 316.096 206.423,316.497 205.120,316.780 203.800 C 317.063 202.480,317.575 200.230,317.918 198.800 C 318.261 197.370,318.569 195.840,318.602 195.400 C 318.636 194.960,318.774 194.330,318.910 194.000 C 319.319 193.010,320.381 189.152,320.324 188.866 C 320.295 188.720,320.502 188.060,320.784 187.400 C 321.066 186.740,321.305 185.705,321.315 185.100 C 321.325 184.495,321.455 184.000,321.603 184.000 C 321.861 184.000,322.821 181.270,323.011 180.000 C 323.060 179.670,323.342 178.770,323.637 178.000 C 323.933 177.230,324.125 176.436,324.066 176.237 C 324.006 176.037,324.115 175.767,324.306 175.637 C 324.850 175.267,326.042 171.991,325.784 171.574 C 325.657 171.368,325.702 171.200,325.884 171.200 C 326.225 171.200,328.556 165.450,328.412 164.962 C 328.368 164.812,328.491 164.579,328.687 164.445 C 328.882 164.310,329.357 163.480,329.743 162.600 C 330.128 161.720,330.714 160.505,331.044 159.900 C 331.375 159.295,331.533 158.800,331.395 158.800 C 331.258 158.800,331.486 158.305,331.902 157.700 C 332.902 156.247,334.443 153.200,334.178 153.200 C 334.063 153.200,334.336 152.806,334.784 152.325 C 335.550 151.502,335.760 151.011,335.647 150.300 C 335.621 150.135,335.747 150.000,335.926 150.000 C 336.106 150.000,336.672 149.235,337.184 148.300 C 337.696 147.365,338.532 146.036,339.042 145.347 C 339.551 144.658,340.021 143.848,340.084 143.547 C 340.148 143.246,340.518 142.763,340.907 142.473 C 341.295 142.183,341.510 141.778,341.383 141.573 C 341.256 141.368,341.317 141.200,341.517 141.200 C 341.857 141.200,345.898 136.318,345.718 136.125 C 345.497 135.887,352.119 129.777,354.400 128.114 C 355.830 127.071,357.132 126.034,357.294 125.809 C 357.456 125.584,357.591 125.534,357.594 125.697 C 357.597 125.860,358.275 125.736,359.100 125.421 C 361.899 124.352,363.253 124.329,365.778 125.306 M161.700 151.096 C 162.965 151.175,165.035 151.175,166.300 151.096 C 167.565 151.016,166.530 150.951,164.000 150.951 C 161.470 150.951,160.435 151.016,161.700 151.096 M352.094 152.392 C 351.156 152.818,350.282 153.443,350.152 153.781 C 350.022 154.119,349.784 154.313,349.621 154.213 C 349.459 154.113,348.723 154.654,347.985 155.416 C 347.247 156.177,346.745 156.800,346.869 156.800 C 346.993 156.800,346.522 157.407,345.823 158.149 C 343.459 160.655,336.453 173.515,336.983 174.373 C 337.105 174.570,337.050 174.792,336.861 174.866 C 336.326 175.075,334.030 181.612,334.271 182.240 C 334.389 182.548,334.326 182.800,334.130 182.800 C 333.802 182.800,332.744 185.810,332.583 187.200 C 332.544 187.530,332.287 188.340,332.012 189.000 C 331.736 189.660,331.474 190.740,331.429 191.400 C 331.384 192.060,331.232 192.870,331.091 193.200 C 330.449 194.700,329.621 198.790,329.843 199.369 C 329.979 199.721,329.895 200.244,329.658 200.531 C 329.420 200.817,328.952 202.750,328.617 204.826 C 328.282 206.901,327.806 209.837,327.559 211.349 C 327.312 212.860,327.047 215.560,326.971 217.349 C 326.895 219.137,326.550 223.750,326.205 227.600 C 325.560 234.808,325.924 244.692,326.880 245.881 C 327.092 246.145,327.155 246.712,327.019 247.141 C 326.638 248.340,328.693 253.039,330.124 254.243 C 331.426 255.339,334.777 255.469,335.121 254.437 C 335.202 254.194,335.427 254.093,335.621 254.213 C 335.815 254.333,336.203 254.064,336.483 253.616 C 336.763 253.167,337.142 252.800,337.325 252.800 C 337.508 252.800,337.927 252.530,338.257 252.200 C 338.587 251.870,338.754 251.600,338.627 251.600 C 338.501 251.600,339.073 250.986,339.899 250.236 C 340.724 249.486,341.758 248.181,342.196 247.336 C 342.634 246.491,343.102 245.710,343.236 245.600 C 343.757 245.174,345.669 241.880,345.804 241.178 C 345.999 240.165,344.851 239.869,342.010 240.199 C 338.472 240.610,336.488 238.796,337.526 236.100 C 337.926 235.063,338.530 232.681,338.617 231.800 C 338.768 230.270,343.200 222.947,343.200 224.227 C 343.200 224.332,343.674 224.108,344.253 223.729 C 345.620 222.833,348.979 222.800,350.800 223.665 C 351.824 224.151,352.341 224.214,352.723 223.897 C 353.410 223.328,354.454 220.810,354.184 220.374 C 354.068 220.186,354.148 219.710,354.362 219.316 C 355.130 217.901,355.958 214.755,355.723 214.143 C 355.591 213.800,355.657 213.402,355.869 213.260 C 356.268 212.990,357.724 207.256,357.564 206.582 C 357.514 206.372,357.576 205.930,357.701 205.600 C 358.343 203.909,358.766 201.129,358.547 200.035 C 358.411 199.356,358.468 198.800,358.673 198.800 C 359.096 198.800,360.032 192.819,360.269 188.600 C 360.356 187.060,360.615 184.450,360.845 182.800 C 361.441 178.526,361.454 164.225,360.864 162.000 C 360.601 161.010,360.312 159.434,360.222 158.499 C 359.718 153.286,356.105 150.571,352.094 152.392 M120.131 203.000 C 120.133 204.540,120.205 205.121,120.292 204.291 C 120.379 203.461,120.377 202.201,120.289 201.491 C 120.200 200.781,120.129 201.460,120.131 203.000 M147.701 213.000 C 147.705 213.880,147.787 214.193,147.883 213.695 C 147.979 213.198,147.975 212.478,147.875 212.095 C 147.775 211.713,147.696 212.120,147.701 213.000 M226.114 234.600 C 226.117 235.700,226.195 236.103,226.287 235.495 C 226.379 234.886,226.377 233.986,226.282 233.495 C 226.187 233.003,226.111 233.500,226.114 234.600 M226.109 242.800 C 226.109 243.790,226.187 244.195,226.282 243.700 C 226.378 243.205,226.378 242.395,226.282 241.900 C 226.187 241.405,226.109 241.810,226.109 242.800 M166.200 262.800 C 167.283 263.900,168.260 264.800,168.370 264.800 C 168.480 264.800,167.683 263.900,166.600 262.800 C 165.517 261.700,164.540 260.800,164.430 260.800 C 164.320 260.800,165.117 261.700,166.200 262.800 M211.685 269.796 C 213.162 271.318,214.427 272.481,214.495 272.381 C 214.564 272.282,213.356 271.036,211.810 269.614 L 209.000 267.028 211.685 269.796 M242.587 289.700 L 240.200 292.200 242.700 289.813 C 244.075 288.499,245.200 287.374,245.200 287.313 C 245.200 287.017,244.805 287.378,242.587 289.700 M238.000 295.800 C 238.746 296.570,239.447 297.200,239.557 297.200 C 239.667 297.200,239.146 296.570,238.400 295.800 C 237.654 295.030,236.953 294.400,236.843 294.400 C 236.733 294.400,237.254 295.030,238.000 295.800 M212.300 301.489 C 213.015 301.578,214.185 301.578,214.900 301.489 C 215.615 301.401,215.030 301.328,213.600 301.328 C 212.170 301.328,211.585 301.401,212.300 301.489 M233.200 314.200 C 233.946 314.970,234.647 315.600,234.757 315.600 C 234.867 315.600,234.346 314.970,233.600 314.200 C 232.854 313.430,232.153 312.800,232.043 312.800 C 231.933 312.800,232.454 313.430,233.200 314.200 " stroke="none" fill="#8c8c8c" fill-rule="evenodd"></path><path id="path3" d="M238.922 46.699 C 241.299 46.770,245.079 46.769,247.322 46.698 C 249.565 46.627,247.620 46.569,243.000 46.569 C 238.380 46.570,236.545 46.628,238.922 46.699 M265.905 48.283 C 266.402 48.379,267.122 48.375,267.505 48.275 C 267.887 48.175,267.480 48.096,266.600 48.101 C 265.720 48.105,265.407 48.187,265.905 48.283 M212.400 49.618 C 211.962 49.915,212.124 49.952,213.000 49.756 C 214.471 49.427,214.790 49.198,213.767 49.206 C 213.345 49.209,212.730 49.395,212.400 49.618 M273.633 49.347 C 273.725 49.428,274.520 49.604,275.400 49.738 C 276.515 49.907,276.758 49.871,276.200 49.619 C 275.432 49.271,273.290 49.044,273.633 49.347 M281.200 50.782 C 281.530 51.005,282.145 51.191,282.567 51.194 C 283.590 51.202,283.271 50.973,281.800 50.644 C 280.924 50.448,280.762 50.485,281.200 50.782 M237.200 57.620 C 236.526 57.849,236.851 57.884,238.200 57.728 C 239.300 57.601,240.275 57.431,240.367 57.349 C 240.682 57.068,238.199 57.280,237.200 57.620 M261.300 57.476 C 261.685 57.576,262.315 57.576,262.700 57.476 C 263.085 57.375,262.770 57.293,262.000 57.293 C 261.230 57.293,260.915 57.375,261.300 57.476 M389.600 66.271 C 381.061 74.229,379.957 75.290,380.084 75.418 C 380.153 75.486,381.376 74.446,382.804 73.108 C 384.232 71.770,386.660 69.498,388.200 68.060 C 389.740 66.622,391.868 64.625,392.928 63.623 L 394.856 61.800 394.643 64.800 C 394.477 67.137,394.510 67.446,394.792 66.200 C 395.241 64.216,395.302 61.598,394.900 61.606 C 394.735 61.609,392.350 63.709,389.600 66.271 M321.200 67.000 C 321.946 67.770,322.647 68.400,322.757 68.400 C 322.867 68.400,322.346 67.770,321.600 67.000 C 320.854 66.230,320.153 65.600,320.043 65.600 C 319.933 65.600,320.454 66.230,321.200 67.000 M172.587 68.900 L 170.200 71.400 172.700 69.013 C 175.022 66.795,175.383 66.400,175.087 66.400 C 175.026 66.400,173.901 67.525,172.587 68.900 M394.093 70.800 C 394.093 71.570,394.175 71.885,394.276 71.500 C 394.376 71.115,394.376 70.485,394.276 70.100 C 394.175 69.715,394.093 70.030,394.093 70.800 M202.175 73.300 L 201.000 74.600 202.300 73.425 C 203.015 72.779,203.600 72.194,203.600 72.125 C 203.600 71.816,203.270 72.088,202.175 73.300 M393.241 77.647 C 392.779 82.706,392.842 85.240,393.332 81.313 C 393.754 77.935,394.116 72.400,393.915 72.400 C 393.808 72.400,393.504 74.761,393.241 77.647 M325.800 76.998 C 325.800 78.826,325.935 80.238,326.100 80.137 C 326.486 79.900,326.481 74.747,326.094 74.137 C 325.932 73.882,325.800 75.170,325.800 76.998 M374.370 80.532 C 371.605 83.209,370.166 84.669,371.171 83.776 C 372.177 82.882,374.187 81.032,375.638 79.665 C 377.090 78.297,378.619 76.928,379.038 76.622 C 379.456 76.316,379.708 75.975,379.598 75.864 C 379.487 75.754,377.134 77.854,374.370 80.532 M166.667 78.267 C 166.306 78.627,166.338 82.883,166.706 83.463 C 166.868 83.718,167.000 82.593,167.000 80.964 C 167.000 79.335,166.985 78.001,166.967 78.001 C 166.948 78.000,166.813 78.120,166.667 78.267 M227.233 84.945 C 227.325 85.025,228.840 85.182,230.600 85.293 C 232.360 85.405,233.350 85.357,232.800 85.188 C 231.805 84.881,226.916 84.668,227.233 84.945 M392.271 87.087 C 391.842 90.577,391.494 95.803,391.705 95.600 C 391.977 95.337,392.906 85.573,392.680 85.347 C 392.585 85.252,392.401 86.034,392.271 87.087 M365.686 88.460 C 364.303 89.805,363.223 90.955,363.286 91.016 C 363.349 91.078,364.617 89.974,366.104 88.564 C 367.591 87.154,368.671 86.003,368.504 86.008 C 368.337 86.012,367.069 87.115,365.686 88.460 M170.400 90.125 C 170.400 90.194,170.985 90.779,171.700 91.425 L 173.000 92.600 171.825 91.300 C 170.730 90.088,170.400 89.816,170.400 90.125 M356.400 97.037 C 350.129 102.876,345.547 107.425,349.608 103.781 C 350.822 102.692,354.032 99.739,356.740 97.220 C 359.449 94.702,361.965 92.412,362.332 92.133 C 362.700 91.854,362.820 91.628,362.600 91.631 C 362.380 91.634,359.590 94.067,356.400 97.037 M79.043 95.491 C 78.931 95.603,78.924 96.168,79.029 96.747 C 79.200 97.699,79.552 103.096,81.389 133.000 C 81.700 138.060,82.143 144.990,82.375 148.400 C 83.514 165.202,84.031 173.217,84.401 179.800 C 84.624 183.760,84.893 187.720,84.999 188.600 C 85.106 189.480,85.378 193.620,85.604 197.800 C 85.994 205.012,86.425 211.778,87.808 232.400 C 88.140 237.350,88.585 244.280,88.796 247.800 C 89.362 257.225,90.742 278.592,91.186 284.800 C 91.398 287.770,91.578 290.974,91.586 291.920 C 91.602 293.942,91.173 293.700,100.700 297.053 C 104.055 298.234,109.635 300.202,113.100 301.428 C 119.573 303.717,124.283 305.376,131.100 307.769 C 133.245 308.522,137.880 310.159,141.400 311.406 C 144.920 312.654,149.510 314.274,151.600 315.006 C 155.594 316.406,165.973 320.076,171.400 322.006 C 179.387 324.848,187.764 327.802,191.800 329.200 C 196.032 330.666,205.278 333.928,212.400 336.468 C 214.270 337.134,217.780 338.370,220.200 339.212 C 222.620 340.055,227.210 341.675,230.400 342.812 C 233.590 343.949,237.910 345.475,240.000 346.204 C 242.090 346.932,246.635 348.535,250.100 349.764 C 258.989 352.919,268.350 356.228,272.800 357.788 C 274.890 358.521,279.005 359.967,281.944 361.002 C 287.061 362.803,287.316 362.853,287.944 362.163 C 288.560 361.487,288.555 361.478,287.864 362.001 C 287.169 362.527,287.140 362.458,287.359 360.779 C 287.487 359.801,287.865 353.420,288.199 346.600 C 288.533 339.780,288.978 331.410,289.189 328.000 C 289.399 324.590,289.670 319.730,289.792 317.200 C 289.914 314.670,290.275 307.830,290.596 302.000 C 290.916 296.170,291.547 284.560,291.997 276.200 C 292.447 267.840,293.083 256.140,293.412 250.200 C 293.740 244.260,294.183 235.980,294.395 231.800 C 294.775 224.343,295.002 220.111,296.206 198.000 C 296.535 191.950,296.894 185.290,297.004 183.200 C 298.852 147.866,298.510 151.150,300.533 149.354 C 301.450 148.539,304.540 145.697,307.400 143.037 C 314.367 136.556,317.765 133.426,317.967 133.302 C 318.058 133.246,318.058 133.127,317.967 133.037 C 317.875 132.947,313.570 136.814,308.400 141.629 C 303.230 146.444,298.694 150.387,298.319 150.392 C 297.945 150.396,288.315 148.048,276.919 145.173 C 254.298 139.467,229.999 133.333,197.800 125.200 C 186.360 122.311,168.540 117.811,158.200 115.200 C 135.914 109.574,97.944 99.987,87.800 97.426 C 83.840 96.426,80.295 95.536,79.923 95.447 C 79.551 95.359,79.155 95.379,79.043 95.491 M391.293 98.000 C 391.293 98.770,391.375 99.085,391.476 98.700 C 391.576 98.315,391.576 97.685,391.476 97.300 C 391.375 96.915,391.293 97.230,391.293 98.000 M227.300 98.276 C 227.685 98.376,228.315 98.376,228.700 98.276 C 229.085 98.175,228.770 98.093,228.000 98.093 C 227.230 98.093,226.915 98.175,227.300 98.276 M390.651 103.000 C 390.009 109.595,389.913 110.989,390.114 110.800 C 390.420 110.512,391.320 101.357,391.104 100.728 C 391.005 100.438,390.801 101.460,390.651 103.000 M189.600 101.431 C 189.600 101.701,191.678 102.456,191.876 102.257 C 191.967 102.167,191.492 101.901,190.820 101.667 C 190.149 101.433,189.600 101.327,189.600 101.431 M343.988 108.698 C 342.565 110.181,342.210 110.660,343.200 109.761 C 344.190 108.862,345.538 107.648,346.196 107.063 C 346.854 106.478,347.208 106.000,346.984 106.000 C 346.760 106.000,345.412 107.214,343.988 108.698 M210.600 107.600 C 211.040 107.789,211.670 107.944,212.000 107.944 C 212.378 107.944,212.304 107.817,211.800 107.600 C 211.360 107.411,210.730 107.256,210.400 107.256 C 210.022 107.256,210.096 107.383,210.600 107.600 M271.600 110.776 C 271.600 110.983,271.808 111.281,272.062 111.438 C 272.336 111.608,272.415 111.549,272.257 111.292 C 272.110 111.055,272.307 110.778,272.695 110.677 C 273.232 110.537,273.185 110.482,272.500 110.446 C 272.005 110.421,271.600 110.569,271.600 110.776 M237.891 111.889 C 238.601 111.977,239.861 111.979,240.691 111.892 C 241.521 111.805,240.940 111.733,239.400 111.731 C 237.860 111.729,237.181 111.800,237.891 111.889 M334.800 117.067 C 325.267 126.015,324.400 126.848,324.400 127.062 C 324.400 127.176,327.685 124.223,331.700 120.500 C 335.715 116.778,339.521 113.252,340.158 112.666 C 340.796 112.080,341.156 111.605,340.958 111.612 C 340.761 111.619,337.990 114.074,334.800 117.067 M244.500 112.276 C 244.885 112.376,245.515 112.376,245.900 112.276 C 246.285 112.175,245.970 112.093,245.200 112.093 C 244.430 112.093,244.115 112.175,244.500 112.276 M389.701 113.800 C 389.705 114.680,389.787 114.993,389.883 114.495 C 389.979 113.998,389.975 113.278,389.875 112.895 C 389.775 112.513,389.696 112.920,389.701 113.800 M389.037 118.928 C 388.864 120.869,388.814 122.547,388.925 122.658 C 389.197 122.930,389.726 117.121,389.516 116.162 C 389.424 115.743,389.209 116.988,389.037 118.928 M288.034 122.647 C 288.565 123.333,289.080 123.823,289.179 123.735 C 289.277 123.647,288.843 123.086,288.213 122.488 L 287.069 121.400 288.034 122.647 M388.493 125.600 C 388.493 126.370,388.575 126.685,388.676 126.300 C 388.776 125.915,388.776 125.285,388.676 124.900 C 388.575 124.515,388.493 124.830,388.493 125.600 M321.040 129.889 C 319.522 131.329,318.464 132.438,318.690 132.353 C 319.280 132.132,324.119 127.585,323.946 127.415 C 323.866 127.336,322.558 128.450,321.040 129.889 M387.861 130.400 C 387.203 137.106,387.100 138.591,387.308 138.400 C 387.620 138.114,388.512 129.059,388.318 128.155 C 388.229 127.740,388.023 128.750,387.861 130.400 M273.300 129.076 C 273.685 129.176,274.315 129.176,274.700 129.076 C 275.085 128.975,274.770 128.893,274.000 128.893 C 273.230 128.893,272.915 128.975,273.300 129.076 M280.900 129.076 C 281.285 129.176,281.915 129.176,282.300 129.076 C 282.685 128.975,282.370 128.893,281.600 128.893 C 280.830 128.893,280.515 128.975,280.900 129.076 M276.905 129.487 C 277.514 129.579,278.414 129.577,278.905 129.482 C 279.397 129.387,278.900 129.311,277.800 129.314 C 276.700 129.317,276.297 129.395,276.905 129.487 M386.669 142.090 C 386.309 145.212,385.967 151.061,386.171 150.600 C 386.438 149.998,387.280 140.347,387.083 140.150 C 386.989 140.056,386.803 140.929,386.669 142.090 M171.961 151.392 C 180.117 152.354,188.507 154.515,197.200 157.895 C 226.511 169.292,247.675 193.243,254.375 222.600 C 255.146 225.978,255.503 228.055,256.405 234.400 C 256.880 237.744,256.884 253.809,256.411 257.200 C 254.574 270.368,252.230 277.100,246.687 285.124 C 244.655 288.065,239.775 292.947,238.100 293.716 C 237.605 293.943,237.200 294.262,237.200 294.426 C 237.200 294.831,244.507 301.555,249.400 305.651 C 262.628 316.726,265.581 322.724,259.977 327.132 C 254.029 331.811,245.767 326.764,223.830 305.051 L 219.841 301.103 216.620 301.360 C 207.346 302.100,196.441 299.924,180.800 294.210 C 178.562 293.393,167.757 288.113,166.400 287.173 C 165.850 286.793,164.140 285.675,162.600 284.690 C 148.122 275.427,135.502 260.586,128.851 245.000 C 127.912 242.800,126.976 240.640,126.772 240.200 C 126.067 238.686,123.618 230.339,122.665 226.200 C 119.448 212.228,119.451 193.167,122.673 182.600 C 124.884 175.348,127.815 168.946,129.875 166.871 C 130.164 166.581,130.400 166.221,130.401 166.071 C 130.402 165.628,135.256 160.680,137.200 159.141 C 145.684 152.426,157.809 149.723,171.961 151.392 M385.693 152.800 C 385.693 153.570,385.775 153.885,385.876 153.500 C 385.976 153.115,385.976 152.485,385.876 152.100 C 385.775 151.715,385.693 152.030,385.693 152.800 M384.813 160.626 C 384.541 163.390,384.405 165.739,384.511 165.844 C 384.714 166.048,385.004 163.802,385.433 158.700 C 385.577 156.995,385.607 155.600,385.501 155.600 C 385.394 155.600,385.085 157.862,384.813 160.626 M384.093 169.200 C 384.093 169.970,384.175 170.285,384.276 169.900 C 384.376 169.515,384.376 168.885,384.276 168.500 C 384.175 168.115,384.093 168.430,384.093 169.200 M383.471 173.800 C 383.312 175.560,383.073 178.080,382.938 179.400 C 382.804 180.720,382.791 181.710,382.910 181.600 C 383.219 181.313,384.111 172.258,383.919 171.355 C 383.831 170.940,383.629 172.040,383.471 173.800 M170.600 176.823 C 161.384 177.963,154.206 184.301,150.748 194.351 C 146.570 206.496,147.105 224.762,152.080 239.794 C 158.890 260.373,179.502 277.254,197.743 277.192 L 200.200 277.183 197.983 275.092 C 195.788 273.020,190.453 268.472,186.609 265.394 C 178.804 259.144,176.602 255.297,178.784 251.719 C 180.704 248.570,184.988 248.420,189.800 251.332 C 195.252 254.632,201.506 259.804,210.923 268.800 C 214.861 272.562,214.635 272.539,217.467 269.449 C 226.777 259.289,229.284 231.309,222.417 214.200 C 222.240 213.760,221.581 212.059,220.952 210.419 C 212.962 189.602,190.180 174.401,170.600 176.823 M382.271 185.487 C 381.842 188.977,381.494 194.203,381.705 194.000 C 381.977 193.737,382.906 183.973,382.680 183.747 C 382.585 183.652,382.401 184.434,382.271 185.487 M381.293 196.400 C 381.293 197.170,381.375 197.485,381.476 197.100 C 381.576 196.715,381.576 196.085,381.476 195.700 C 381.375 195.315,381.293 195.630,381.293 196.400 M380.651 201.400 C 380.009 207.995,379.913 209.389,380.114 209.200 C 380.420 208.912,381.320 199.757,381.104 199.128 C 381.005 198.838,380.801 199.860,380.651 201.400 M379.701 212.200 C 379.705 213.080,379.787 213.393,379.883 212.895 C 379.979 212.398,379.975 211.678,379.875 211.295 C 379.775 210.913,379.696 211.320,379.701 212.200 M379.037 217.328 C 378.864 219.269,378.814 220.947,378.925 221.058 C 379.197 221.330,379.726 215.521,379.516 214.562 C 379.424 214.143,379.209 215.388,379.037 217.328 M326.901 219.000 C 326.905 219.880,326.987 220.193,327.083 219.695 C 327.179 219.198,327.175 218.478,327.075 218.095 C 326.975 217.713,326.896 218.120,326.901 219.000 M378.493 224.000 C 378.493 224.770,378.575 225.085,378.676 224.700 C 378.776 224.315,378.776 223.685,378.676 223.300 C 378.575 222.915,378.493 223.230,378.493 224.000 M377.847 228.800 C 377.693 230.450,377.460 232.970,377.329 234.400 C 377.198 235.830,377.201 236.899,377.335 236.776 C 377.650 236.490,378.525 226.973,378.299 226.304 C 378.205 226.027,378.002 227.150,377.847 228.800 M369.714 232.600 C 369.717 233.700,369.795 234.103,369.887 233.495 C 369.979 232.886,369.977 231.986,369.882 231.495 C 369.787 231.003,369.711 231.500,369.714 232.600 M376.669 240.490 C 376.309 243.612,375.967 249.461,376.171 249.000 C 376.438 248.398,377.280 238.747,377.083 238.550 C 376.989 238.456,376.803 239.329,376.669 240.490 M311.367 251.000 C 311.367 255.180,311.426 256.836,311.498 254.679 C 311.571 252.523,311.570 249.103,311.498 247.079 C 311.425 245.056,311.366 246.820,311.367 251.000 M375.632 250.346 C 375.603 250.845,373.698 253.437,370.081 257.900 C 369.324 258.835,368.796 259.600,368.908 259.600 C 369.067 259.600,373.324 254.409,375.702 251.313 C 375.907 251.046,375.983 250.596,375.869 250.313 C 375.710 249.916,375.656 249.924,375.632 250.346 M360.935 269.341 C 359.359 271.353,355.613 276.122,352.611 279.938 C 349.608 283.755,347.336 286.763,347.561 286.624 C 348.148 286.261,364.117 265.982,363.944 265.818 C 363.865 265.743,362.511 267.328,360.935 269.341 M343.983 290.900 C 343.240 291.835,342.948 292.346,343.335 292.036 C 344.063 291.451,345.777 289.200,345.494 289.200 C 345.406 289.200,344.726 289.965,343.983 290.900 M339.344 296.700 C 337.310 299.261,337.070 299.600,337.292 299.600 C 337.396 299.600,338.330 298.520,339.368 297.200 C 340.405 295.880,341.163 294.800,341.053 294.800 C 340.943 294.800,340.174 295.655,339.344 296.700 M328.277 310.750 C 323.699 316.608,320.459 320.860,321.078 320.200 C 322.775 318.389,336.906 300.370,336.743 300.226 C 336.664 300.157,332.854 304.893,328.277 310.750 M312.487 330.616 C 310.790 332.923,311.083 332.914,312.979 330.600 C 313.790 329.610,314.307 328.807,314.127 328.816 C 313.947 328.824,313.209 329.634,312.487 330.616 M301.107 345.053 C 296.547 350.854,292.947 355.591,293.107 355.580 C 293.460 355.556,309.739 334.797,309.540 334.626 C 309.463 334.560,305.668 339.252,301.107 345.053 M289.755 359.481 C 288.907 360.516,288.422 361.234,288.677 361.076 C 289.221 360.740,291.755 357.600,291.482 357.600 C 291.380 357.600,290.603 358.447,289.755 359.481 " stroke="none" fill="#ababab" fill-rule="evenodd"></path><path id="path4" d="M0.000 200.000 L 0.000 400.000 200.000 400.000 L 400.000 400.000 400.000 200.000 L 400.000 0.000 200.000 0.000 L 0.000 0.000 0.000 200.000 M258.000 47.155 C 263.278 47.607,266.113 47.965,272.600 49.001 C 277.161 49.728,282.918 50.826,283.249 51.030 C 283.404 51.126,284.762 51.462,286.266 51.777 C 289.872 52.531,293.956 53.539,295.200 53.982 C 295.750 54.177,297.820 54.829,299.800 55.430 C 301.780 56.031,303.580 56.651,303.800 56.809 C 304.020 56.967,304.920 57.326,305.800 57.608 C 307.429 58.129,315.236 61.969,315.600 62.428 C 315.710 62.567,316.239 62.912,316.775 63.194 C 318.587 64.150,323.005 68.305,324.224 70.200 C 326.081 73.089,327.241 79.433,326.045 80.172 C 325.850 80.293,325.580 80.980,325.445 81.699 C 324.821 85.029,319.520 91.085,313.000 95.917 C 309.933 98.190,304.087 101.460,300.297 103.021 C 298.924 103.587,297.260 104.289,296.600 104.580 C 295.940 104.872,294.950 105.232,294.400 105.381 C 293.850 105.529,293.040 105.808,292.600 106.000 C 290.543 106.901,284.611 108.366,277.261 109.789 C 274.544 110.315,272.245 110.822,272.151 110.916 C 271.906 111.161,272.470 111.580,277.600 114.963 C 280.130 116.631,282.417 118.177,282.683 118.398 C 282.949 118.619,283.289 118.800,283.439 118.800 C 284.517 118.800,289.200 123.341,289.200 124.386 C 289.200 128.293,279.150 130.828,272.000 128.725 C 268.147 127.591,262.126 124.727,260.205 123.113 C 259.982 122.927,258.630 121.929,257.200 120.896 C 255.770 119.863,254.510 118.924,254.400 118.809 C 254.290 118.694,252.460 117.200,250.334 115.489 L 246.467 112.377 241.134 111.999 C 231.535 111.319,224.217 110.386,217.600 108.997 C 216.170 108.697,214.370 108.337,213.600 108.197 C 210.883 107.701,204.990 106.312,204.200 105.982 C 203.760 105.797,202.770 105.532,202.000 105.391 C 200.382 105.096,195.689 103.681,194.787 103.217 C 194.450 103.044,193.550 102.770,192.787 102.609 C 192.024 102.447,190.860 102.076,190.200 101.783 C 189.540 101.490,187.830 100.771,186.400 100.186 C 176.038 95.946,169.293 90.526,167.178 84.741 C 166.379 82.554,166.123 78.618,166.755 78.228 C 166.950 78.107,167.220 77.417,167.356 76.693 C 168.184 72.280,175.685 64.975,184.581 59.920 C 187.841 58.067,195.756 54.400,196.495 54.400 C 196.795 54.400,197.211 54.246,197.420 54.058 C 197.629 53.870,199.420 53.226,201.400 52.627 C 203.380 52.028,205.450 51.373,206.000 51.173 C 207.052 50.790,211.221 49.819,214.600 49.171 C 221.118 47.919,223.579 47.574,228.796 47.180 C 231.983 46.939,234.683 46.651,234.794 46.539 C 235.129 46.204,252.190 46.657,258.000 47.155 M243.400 57.040 C 242.740 57.136,240.130 57.500,237.600 57.849 C 231.691 58.666,225.137 60.313,221.740 61.835 C 221.046 62.146,220.326 62.406,220.140 62.414 C 219.953 62.421,219.080 62.775,218.200 63.200 C 217.320 63.625,216.479 63.979,216.332 63.986 C 215.637 64.022,207.929 68.732,205.755 70.450 C 193.948 79.779,195.617 87.277,211.000 94.015 C 211.711 94.326,216.531 95.771,220.400 96.832 C 222.038 97.281,229.543 98.393,232.996 98.698 L 235.392 98.910 234.196 97.923 C 233.538 97.381,231.200 95.824,229.000 94.464 C 223.470 91.045,223.619 91.146,222.048 89.750 C 219.561 87.539,222.313 85.454,228.400 84.937 C 233.189 84.530,240.884 87.339,247.200 91.800 C 248.410 92.655,250.120 93.851,251.000 94.457 C 251.880 95.064,253.230 96.108,254.000 96.779 C 254.770 97.450,255.618 97.999,255.884 97.999 C 257.084 98.001,262.641 97.065,263.000 96.800 C 263.220 96.637,264.120 96.379,265.000 96.226 C 275.188 94.452,289.422 85.428,293.193 78.352 C 296.417 72.304,291.882 65.228,283.082 62.577 C 282.597 62.431,281.660 62.075,281.000 61.787 C 273.906 58.688,251.532 55.864,243.400 57.040 M395.065 63.900 C 394.593 68.316,393.182 82.247,392.605 88.187 C 392.285 91.480,391.922 94.900,391.798 95.787 C 391.674 96.674,391.300 100.190,390.967 103.600 C 390.293 110.489,389.633 117.068,388.419 129.000 C 387.972 133.400,387.342 139.700,387.019 143.000 C 386.697 146.300,386.330 149.731,386.204 150.624 C 386.077 151.517,385.716 155.027,385.400 158.424 C 385.085 161.821,384.454 168.200,383.998 172.600 C 383.542 177.000,382.911 183.294,382.596 186.587 C 382.281 189.880,381.922 193.300,381.798 194.187 C 381.674 195.074,381.300 198.590,380.967 202.000 C 380.633 205.410,380.105 210.720,379.793 213.800 C 378.678 224.805,377.603 235.495,377.020 241.400 C 376.002 251.700,376.384 250.554,372.266 255.653 C 370.246 258.154,364.317 265.631,359.090 272.270 C 353.864 278.908,349.005 285.043,348.294 285.902 C 347.582 286.761,346.601 287.990,346.114 288.632 C 345.627 289.274,343.287 292.248,340.914 295.239 C 334.909 302.811,322.891 318.032,307.652 337.370 C 300.530 346.406,294.112 354.520,293.389 355.400 C 292.666 356.280,291.042 358.305,289.781 359.900 C 288.519 361.495,287.377 362.799,287.243 362.797 C 287.109 362.796,284.660 361.968,281.800 360.957 C 278.940 359.946,274.890 358.519,272.800 357.787 C 268.419 356.252,259.172 352.984,250.100 349.764 C 246.635 348.535,242.090 346.932,240.000 346.204 C 237.910 345.475,233.590 343.949,230.400 342.812 C 227.210 341.675,222.620 340.055,220.200 339.212 C 217.780 338.370,214.270 337.134,212.400 336.468 C 205.367 333.960,196.049 330.672,191.800 329.199 C 189.380 328.360,185.870 327.129,184.000 326.464 C 182.130 325.799,177.720 324.236,174.200 322.991 C 170.680 321.746,165.010 319.739,161.600 318.533 C 158.190 317.326,153.690 315.739,151.600 315.006 C 149.510 314.274,144.920 312.654,141.400 311.406 C 137.880 310.159,133.200 308.507,131.000 307.735 C 125.405 305.772,120.433 304.021,113.000 301.393 C 109.480 300.149,103.900 298.180,100.600 297.018 C 91.186 293.704,91.602 293.940,91.586 291.920 C 91.578 290.974,91.398 287.770,91.186 284.800 C 90.742 278.592,89.362 257.225,88.796 247.800 C 88.585 244.280,88.140 237.350,87.808 232.400 C 86.425 211.778,85.994 205.012,85.604 197.800 C 85.378 193.620,85.106 189.480,84.999 188.600 C 84.893 187.720,84.624 183.760,84.401 179.800 C 84.031 173.217,83.514 165.202,82.375 148.400 C 82.143 144.990,81.700 138.060,81.389 133.000 C 80.308 115.400,79.201 97.792,79.101 96.600 C 78.976 95.116,78.666 95.086,88.000 97.462 C 94.425 99.098,103.027 101.271,158.200 115.200 C 168.540 117.811,186.360 122.311,197.800 125.200 C 229.999 133.333,254.298 139.467,276.919 145.173 C 288.315 148.048,297.945 150.397,298.319 150.394 C 298.694 150.391,302.510 147.122,306.800 143.131 C 322.210 128.795,323.722 127.392,324.397 126.800 C 324.774 126.470,328.483 123.033,332.641 119.161 C 340.947 111.427,355.901 97.558,363.400 90.633 C 366.040 88.195,369.731 84.760,371.603 83.000 C 373.474 81.240,377.164 77.807,379.803 75.371 C 382.441 72.935,386.850 68.843,389.600 66.277 C 395.394 60.871,395.389 60.873,395.065 63.900 " stroke="none" fill="#ffffff" fill-rule="evenodd"></path></g></svg>